<svg width="360" height="280" viewBox="0 0 360 280" fill="none" xmlns="http://www.w3.org/2000/svg">
<path d="M0 244.865V0H360V244.865C308.42 267.068 246.539 280 180 280C113.461 280 51.5803 267.068 0 244.865Z" fill="#E2E3EE"/>
<path d="M163.476 208.371C161.655 208.371 159.765 208.161 157.944 207.53C152.693 205.85 149.192 201.789 146.041 198.288C144.36 196.397 142.75 194.577 141.139 193.386C139.529 192.196 137.288 191.216 134.907 190.165C130.566 188.275 125.735 186.174 122.514 181.763C119.363 177.422 118.803 172.17 118.383 167.479C118.103 164.888 117.893 162.437 117.262 160.477C116.632 158.656 115.442 156.626 114.181 154.455C111.801 150.394 109 145.773 109 140.171C109 134.569 111.731 129.948 114.181 125.887C115.442 123.716 116.702 121.686 117.262 119.865C117.893 117.905 118.173 115.454 118.383 112.863C118.873 108.242 119.363 102.92 122.514 98.579C125.665 94.1678 130.566 92.0672 134.907 90.1766C137.288 89.1263 139.529 88.146 141.139 86.9557C142.75 85.7654 144.36 83.9448 146.041 82.0543C149.192 78.4833 152.693 74.4921 157.944 72.8116C162.986 71.2012 168.097 72.3215 172.648 73.3018C177.83 74.4221 181.821 74.4221 187.002 73.3018C191.554 72.3215 196.665 71.2012 201.707 72.8116C206.958 74.4921 210.459 78.5533 213.61 82.0543C215.291 83.9448 216.901 85.7654 218.511 86.9557C220.122 88.146 222.363 89.1263 224.743 90.1766C229.085 92.0672 233.916 94.1678 237.137 98.579C240.288 102.92 240.848 108.172 241.268 112.863C241.548 115.454 241.758 117.905 242.388 119.865C243.019 121.686 244.209 123.716 245.469 125.887C247.85 129.948 250.651 134.569 250.651 140.171C250.651 145.773 247.92 150.394 245.469 154.455C244.209 156.626 242.949 158.656 242.388 160.477C241.758 162.437 241.478 164.888 241.268 167.479C240.778 172.1 240.288 177.422 237.137 181.763C233.986 186.174 229.085 188.275 224.743 190.165C222.363 191.216 220.122 192.196 218.511 193.386C216.901 194.577 215.291 196.397 213.61 198.288C210.459 201.859 206.958 205.85 201.707 207.53C196.735 209.141 191.554 208.021 187.002 207.04C181.821 205.92 177.83 205.92 172.648 207.04C169.777 207.67 166.697 208.371 163.476 208.371ZM163.476 82.5444C162.635 82.5444 161.865 82.6145 161.165 82.8945C158.644 83.7348 156.404 86.3255 153.953 89.1263C151.992 91.367 149.892 93.7477 147.371 95.5682C144.78 97.4587 141.909 98.7191 139.109 99.9094C135.748 101.38 132.527 102.78 131.056 104.811C129.586 106.841 129.236 110.272 128.886 113.913C128.606 116.924 128.256 120.075 127.275 123.156C126.295 126.097 124.755 128.758 123.214 131.278C121.324 134.499 119.503 137.51 119.503 140.241C119.503 142.972 121.324 145.983 123.214 149.204C124.755 151.794 126.295 154.385 127.275 157.326C128.256 160.407 128.606 163.558 128.886 166.569C129.236 170.21 129.586 173.641 131.056 175.671C132.597 177.772 135.748 179.102 139.109 180.573C141.909 181.763 144.78 183.023 147.371 184.914C149.892 186.734 151.992 189.115 153.953 191.356C156.404 194.157 158.714 196.747 161.165 197.588C163.476 198.358 166.837 197.588 170.338 196.817C173.348 196.117 176.499 195.487 179.79 195.487C183.081 195.487 186.232 196.187 189.243 196.817C192.814 197.588 196.105 198.358 198.416 197.588C200.936 196.747 203.177 194.157 205.628 191.356C207.588 189.115 209.689 186.734 212.21 184.914C214.8 183.023 217.671 181.763 220.472 180.573C223.833 179.102 227.054 177.702 228.524 175.671C229.995 173.641 230.345 170.21 230.695 166.569C230.975 163.558 231.325 160.407 232.305 157.326C233.286 154.385 234.826 151.724 236.367 149.204C238.257 145.983 240.078 142.972 240.078 140.241C240.078 137.51 238.257 134.499 236.367 131.278C234.826 128.688 233.286 126.097 232.305 123.156C231.325 120.075 230.975 116.924 230.695 113.913C230.345 110.272 229.995 106.841 228.524 104.811C226.984 102.71 223.833 101.38 220.472 99.9094C217.671 98.7191 214.8 97.4587 212.21 95.5682C209.689 93.7476 207.588 91.367 205.628 89.1263C203.177 86.3255 200.866 83.7348 198.416 82.8945C196.105 82.1943 192.744 82.8945 189.243 83.6647C186.232 84.365 183.081 84.9951 179.79 84.9951C176.499 84.9951 173.348 84.2949 170.338 83.6647C167.817 83.1046 165.436 82.6144 163.476 82.6144V82.5444Z" fill="#3C458F" stroke="#C8CADC" stroke-width="5"/>
<path d="M172.858 159.426C171.528 159.426 170.198 158.936 169.147 157.886L155.143 143.882C153.113 141.851 153.113 138.49 155.143 136.46C157.174 134.429 160.535 134.429 162.565 136.46L172.858 146.753L197.155 122.456C199.186 120.425 202.547 120.425 204.578 122.456C206.608 124.486 206.608 127.847 204.578 129.878L176.569 157.886C175.519 158.936 174.189 159.426 172.858 159.426Z" fill="#3C458F"/>
</svg>
