<svg width="25" height="24" viewBox="0 0 25 24" fill="none" xmlns="http://www.w3.org/2000/svg">
<path d="M20.0986 23.9317C19.2092 24.5702 13.5023 20.5225 12.4093 20.5136C11.3163 20.5048 5.54516 24.4594 4.66612 23.8065C3.78707 23.1536 5.85366 16.4476 5.52433 15.4001C5.19499 14.3526 -0.330538 10.058 0.0155997 9.01593C0.361783 7.97389 7.3459 7.8771 8.23531 7.23854C9.12473 6.60006 11.481 -0.00880315 12.5741 8.80407e-06C13.667 0.00891231 15.9168 6.65513 16.7958 7.30803C17.6749 7.96085 24.6566 8.17099 24.986 9.21848C25.3154 10.266 19.7217 14.4704 19.3755 15.5124C19.0294 16.5545 20.9881 23.2931 20.0986 23.9317Z" fill="#3C458F"/>
</svg>
