<svg width="22" height="24" viewBox="0 0 22 24" fill="none" xmlns="http://www.w3.org/2000/svg">
<path d="M22 11.1429V19.7143C21.9974 22.0801 20.1179 23.9973 17.7986 24H11.7638C11.2997 24 10.9235 23.6162 10.9235 23.1429C10.9235 22.6695 11.2997 22.2857 11.7638 22.2857H17.7986C19.1902 22.2841 20.3179 21.1338 20.3195 19.7143V19.5669C20.0497 19.6645 19.7655 19.7144 19.4792 19.7143H17.7986C16.4071 19.7127 15.2794 18.5623 15.2778 17.1429V12.8571C15.2794 11.4377 16.4071 10.2873 17.7986 10.2857H20.2821C19.8443 5.40344 15.8122 1.67769 11.0062 1.71456C11.0019 1.71461 10.998 1.71461 10.9937 1.71456C6.18774 1.67784 2.15576 5.40353 1.71788 10.2857H4.20136C5.59291 10.2873 6.72058 11.4377 6.72217 12.8571V17.1429C6.72058 18.5623 5.59291 19.7127 4.20136 19.7143L2.52081 19.7143C1.12927 19.7127 0.00159264 18.5623 0 17.1429V11.1429C0 8.17406 1.1614 5.32801 3.22652 3.23612C5.29162 1.14425 8.08972 -0.0205128 11 0.00027351C11.0256 0.000117108 11.0516 1.22037e-05 11.0772 1.22037e-05C17.1091 1.22037e-05 21.9996 4.98914 22 11.1429Z" fill="#3C458F"/>
</svg>
