<svg width="144" height="40" viewBox="0 0 144 40" fill="none" xmlns="http://www.w3.org/2000/svg">
<path d="M0 20C0 8.95431 8.95431 0 20 0C31.0457 0 40 8.95431 40 20C40 31.0457 31.0457 40 20 40C8.95431 40 0 31.0457 0 20Z" fill="#3C458F"/>
<path d="M16.3544 16.7265C16.2588 16.7265 16.1656 16.7548 16.0861 16.8079C16.0067 16.861 15.9448 16.9364 15.9082 17.0246C15.8717 17.1129 15.8622 17.21 15.8808 17.3036C15.8995 17.3973 15.9455 17.4834 16.013 17.5509C16.0805 17.6184 16.1665 17.6644 16.2602 17.683C16.3539 17.7017 16.4509 17.6921 16.5392 17.6556C16.6274 17.619 16.7029 17.5571 16.756 17.4777C16.809 17.3983 16.8373 17.3049 16.8373 17.2094C16.8372 17.0814 16.7864 16.9586 16.6958 16.868C16.6053 16.7774 16.4824 16.7266 16.3544 16.7265Z" fill="white" stroke="white" stroke-width="0.5"/>
<path d="M13.4567 9C10.5383 9 8 11.3593 8 14.3119V25.9017C8 28.8551 10.5392 31.2135 13.4567 31.2135C16.3697 31.2135 18.9135 28.8588 18.9135 25.9017V14.3119C18.9135 11.3584 16.374 9 13.4567 9ZM17.9477 25.9017C17.9477 28.3473 15.8078 30.2478 13.4567 30.2478C11.0224 30.2478 8.96582 28.2575 8.96582 25.9017V20.5898H17.948L17.9477 25.9017ZM17.9477 19.624H8.96582V14.3119C8.96582 11.9559 11.0225 9.96576 13.4568 9.96576C15.8912 9.96576 17.9478 11.956 17.9478 14.3119L17.9477 19.624Z" fill="white" stroke="white" stroke-width="0.5"/>
<path d="M14.5837 11.1246C14.524 11.1034 14.4606 11.0942 14.3973 11.0975C14.334 11.1008 14.2719 11.1166 14.2146 11.1439C14.1574 11.1712 14.106 11.2095 14.0636 11.2566C14.0211 11.3037 13.9885 11.3587 13.9673 11.4185C13.9461 11.4783 13.9368 11.5416 13.9401 11.605C13.9435 11.6683 13.9592 11.7304 13.9865 11.7876C14.0138 11.8449 14.0521 11.8962 14.0992 11.9386C14.1463 11.9811 14.2014 12.0138 14.2611 12.035C14.7315 12.2021 15.1388 12.5105 15.427 12.9181C15.7153 13.3257 15.8704 13.8124 15.8712 14.3116V15.2774C15.8712 15.4055 15.922 15.5283 16.0126 15.6189C16.1032 15.7095 16.226 15.7603 16.3541 15.7603C16.4822 15.7603 16.605 15.7095 16.6956 15.6189C16.7861 15.5283 16.837 15.4055 16.837 15.2774V14.3116C16.8359 13.6129 16.6188 12.9315 16.2154 12.361C15.812 11.7905 15.2421 11.3586 14.5837 11.1246Z" fill="white" stroke="white" stroke-width="0.5"/>
<path d="M26.3019 18.5131C22.916 18.5131 19.8794 21.3893 19.8794 24.9356C19.8794 28.3992 22.8386 31.3582 26.3019 31.3582C29.7519 31.3582 32.7245 28.426 32.7245 24.9356C32.7245 21.4721 29.7651 18.5131 26.3019 18.5131ZM26.3019 30.3924C23.3441 30.3924 20.8452 27.8935 20.8452 24.9356C20.852 23.6602 21.3133 22.4289 22.1462 21.4629L29.7745 29.0912C28.809 29.9248 27.5775 30.3862 26.3019 30.3924ZM30.4575 28.4083L22.8296 20.7803C23.817 19.948 25.0556 19.4789 26.3019 19.4789C29.2597 19.4789 31.7587 21.9777 31.7587 24.9356C31.7526 26.2112 31.2911 27.4427 30.4575 28.4083Z" fill="white" stroke="white" stroke-width="0.5"/>
<path d="M53.592 12.064V28.816H50.232V12.064H53.592ZM64.272 15.328C65.856 15.328 67.136 15.828 68.112 16.828C69.088 17.828 69.576 19.224 69.576 21.016V28.816H66.216V21.472C66.216 20.416 65.952 19.604 65.424 19.036C64.896 18.468 64.176 18.184 63.264 18.184C62.336 18.184 61.604 18.468 61.068 19.036C60.532 19.604 60.264 20.416 60.264 21.472V28.816H56.904V15.52H60.264V17.176C60.712 16.6 61.284 16.148 61.98 15.82C62.676 15.492 63.44 15.328 64.272 15.328ZM78.312 25.72L81.672 15.52H85.248L80.328 28.816H76.248L71.352 15.52H74.952L78.312 25.72ZM99.504 21.88C99.504 22.36 99.472 22.792 99.408 23.176H89.688C89.768 24.136 90.104 24.888 90.696 25.432C91.288 25.976 92.016 26.248 92.88 26.248C94.128 26.248 95.016 25.712 95.544 24.64H99.168C98.784 25.92 98.048 26.972 96.96 27.796C95.872 28.62 94.536 29.032 92.952 29.032C91.672 29.032 90.524 28.748 89.508 28.18C88.492 27.612 87.7 26.808 87.132 25.768C86.564 24.728 86.28 23.528 86.28 22.168C86.28 20.792 86.56 19.584 87.12 18.544C87.68 17.504 88.464 16.704 89.472 16.144C90.48 15.584 91.64 15.304 92.952 15.304C94.216 15.304 95.348 15.576 96.348 16.12C97.348 16.664 98.124 17.436 98.676 18.436C99.228 19.436 99.504 20.584 99.504 21.88ZM96.024 20.92C96.008 20.056 95.696 19.364 95.088 18.844C94.48 18.324 93.736 18.064 92.856 18.064C92.024 18.064 91.324 18.316 90.756 18.82C90.188 19.324 89.84 20.024 89.712 20.92H96.024ZM107.04 29.032C105.952 29.032 104.976 28.836 104.112 28.444C103.248 28.052 102.564 27.52 102.06 26.848C101.556 26.176 101.28 25.432 101.232 24.616H104.616C104.68 25.128 104.932 25.552 105.372 25.888C105.812 26.224 106.36 26.392 107.016 26.392C107.656 26.392 108.156 26.264 108.516 26.008C108.876 25.752 109.056 25.424 109.056 25.024C109.056 24.592 108.836 24.268 108.396 24.052C107.956 23.836 107.256 23.6 106.296 23.344C105.304 23.104 104.492 22.856 103.86 22.6C103.228 22.344 102.684 21.952 102.228 21.424C101.772 20.896 101.544 20.184 101.544 19.288C101.544 18.552 101.756 17.88 102.18 17.272C102.604 16.664 103.212 16.184 104.004 15.832C104.796 15.48 105.728 15.304 106.8 15.304C108.384 15.304 109.648 15.7 110.592 16.492C111.536 17.284 112.056 18.352 112.152 19.696H108.936C108.888 19.168 108.668 18.748 108.276 18.436C107.884 18.124 107.36 17.968 106.704 17.968C106.096 17.968 105.628 18.08 105.3 18.304C104.972 18.528 104.808 18.84 104.808 19.24C104.808 19.688 105.032 20.028 105.48 20.26C105.928 20.492 106.624 20.728 107.568 20.968C108.528 21.208 109.32 21.456 109.944 21.712C110.568 21.968 111.108 22.364 111.564 22.9C112.02 23.436 112.256 24.144 112.272 25.024C112.272 25.792 112.06 26.48 111.636 27.088C111.212 27.696 110.604 28.172 109.812 28.516C109.02 28.86 108.096 29.032 107.04 29.032ZM118.944 18.28V24.712C118.944 25.16 119.052 25.484 119.268 25.684C119.484 25.884 119.848 25.984 120.36 25.984H121.92V28.816H119.808C116.976 28.816 115.56 27.44 115.56 24.688V18.28H113.976V15.52H115.56V12.232H118.944V15.52H121.92V18.28H118.944ZM126.048 13.936C125.456 13.936 124.964 13.748 124.572 13.372C124.18 12.996 123.984 12.528 123.984 11.968C123.984 11.408 124.18 10.94 124.572 10.564C124.964 10.188 125.456 10 126.048 10C126.64 10 127.132 10.188 127.524 10.564C127.916 10.94 128.112 11.408 128.112 11.968C128.112 12.528 127.916 12.996 127.524 13.372C127.132 13.748 126.64 13.936 126.048 13.936ZM127.704 15.52V28.816H124.344V15.52H127.704ZM130.152 22.12C130.152 20.776 130.42 19.584 130.956 18.544C131.492 17.504 132.22 16.704 133.14 16.144C134.06 15.584 135.088 15.304 136.224 15.304C137.216 15.304 138.084 15.504 138.828 15.904C139.572 16.304 140.168 16.808 140.616 17.416V15.52H144V28.816H140.616V26.872C140.184 27.496 139.588 28.012 138.828 28.42C138.068 28.828 137.192 29.032 136.2 29.032C135.08 29.032 134.06 28.744 133.14 28.168C132.22 27.592 131.492 26.78 130.956 25.732C130.42 24.684 130.152 23.48 130.152 22.12ZM140.616 22.168C140.616 21.352 140.456 20.652 140.136 20.068C139.816 19.484 139.384 19.036 138.84 18.724C138.296 18.412 137.712 18.256 137.088 18.256C136.464 18.256 135.888 18.408 135.36 18.712C134.832 19.016 134.404 19.46 134.076 20.044C133.748 20.628 133.584 21.32 133.584 22.12C133.584 22.92 133.748 23.62 134.076 24.22C134.404 24.82 134.836 25.28 135.372 25.6C135.908 25.92 136.48 26.08 137.088 26.08C137.712 26.08 138.296 25.924 138.84 25.612C139.384 25.3 139.816 24.852 140.136 24.268C140.456 23.684 140.616 22.984 140.616 22.168Z" fill="#3C458F"/>
</svg>
