<svg width="24" height="24" viewBox="0 0 24 24" fill="none" xmlns="http://www.w3.org/2000/svg">
<path d="M20.4131 4.97118V1.75781H16.2415V4.97118C16.2415 5.68278 15.719 6.28645 15.0147 6.38853C13.8623 6.55554 13.0072 7.54342 13.0072 8.70794V21.3038C13.0072 22.5982 14.0565 23.6475 15.3509 23.6475H21.3037C22.5594 23.6871 23.6049 22.6416 23.6473 21.3038V8.70794C23.6473 7.54342 22.7924 6.55554 21.6399 6.38853C20.9356 6.28645 20.4131 5.68278 20.4131 4.97118Z" fill="#3C458F"/>
<path d="M21.3719 24.0001C21.3475 24.0001 21.323 23.9997 21.2985 23.999H15.3509C13.863 23.9973 12.6573 22.7916 12.6557 21.3038V8.70793C12.6618 7.37101 13.6421 6.23837 14.9643 6.04058C15.4944 5.96131 15.8875 5.50722 15.8899 4.97122V1.7578C15.8899 1.56364 16.0473 1.40625 16.2414 1.40625H20.4131C20.6073 1.40625 20.7647 1.56364 20.7647 1.7578V4.97122C20.7671 5.50722 21.1602 5.96131 21.6903 6.04058C23.0125 6.23837 23.9928 7.37101 23.9989 8.70793V21.3038C23.9989 21.3075 23.9988 21.3112 23.9987 21.3149C23.9512 22.8124 22.7805 24.0001 21.3719 24.0001ZM16.593 2.10934V4.97122C16.5889 5.85599 15.9402 6.60555 15.0651 6.73645C14.0878 6.88263 13.3633 7.71979 13.3588 8.70793V21.3038C13.36 22.4035 14.2512 23.2947 15.3509 23.2959H21.3037C21.3075 23.2959 21.3111 23.2959 21.3148 23.2961C22.3695 23.3295 23.257 22.4335 23.2958 21.298V8.70797C23.2913 7.71982 22.5667 6.88264 21.5894 6.73645C20.7144 6.60556 20.0656 5.85599 20.0616 4.97122V2.10934H16.593Z" fill="#000636"/>
<path d="M16.1008 0.351562H20.5538C20.9421 0.351562 21.2569 0.666348 21.2569 1.05466V2.78895H15.3978V1.05466C15.3978 0.666348 15.7125 0.351562 16.1008 0.351562Z" fill="#E2E3EE"/>
<path d="M21.2568 3.14048H15.3977C15.2036 3.14048 15.0462 2.98309 15.0462 2.78894V1.05464C15.0468 0.472457 15.5186 0.000671416 16.1008 8.9403e-08L20.5537 0C21.1359 0.000672936 21.6077 0.472458 21.6084 1.05464V2.78894C21.6084 2.98309 21.451 3.14048 21.2568 3.14048ZM15.7493 2.43739H20.9053V1.05464C20.9051 0.860572 20.7478 0.7033 20.5537 0.703094L16.1008 0.703093C15.9067 0.7033 15.7495 0.860572 15.7493 1.05464V2.43739Z" fill="#000636"/>
<path d="M15.7727 2.78882H20.8819C21.2702 2.78882 21.585 3.1036 21.585 3.49191C21.585 3.88022 21.2702 4.19501 20.8819 4.19501H15.7727C15.3844 4.19501 15.0696 3.88022 15.0696 3.49191C15.0696 3.1036 15.3844 2.78882 15.7727 2.78882Z" fill="#E2E3EE"/>
<path d="M20.8819 4.54678H15.7727C15.1903 4.54678 14.7181 4.0746 14.7181 3.49214C14.7181 2.90968 15.1903 2.4375 15.7727 2.4375H20.8819C21.4644 2.4375 21.9365 2.90968 21.9365 3.49214C21.9365 4.0746 21.4644 4.54678 20.8819 4.54678ZM15.7727 3.14059C15.5786 3.14059 15.4212 3.29799 15.4212 3.49214C15.4212 3.68629 15.5786 3.84369 15.7727 3.84369H20.8819C21.076 3.84369 21.2334 3.68629 21.2334 3.49214C21.2334 3.29799 21.076 3.14059 20.8819 3.14059H15.7727Z" fill="#000636"/>
<path d="M13.0072 10.3354H23.6474V18.8194H13.0072V10.3354Z" fill="#C0C7FF"/>
<path d="M23.6474 19.171H13.0072C12.813 19.171 12.6557 19.0136 12.6557 18.8195V10.3355C12.6557 10.1413 12.813 9.98393 13.0072 9.98393L23.6474 9.98393C23.8415 9.98393 23.9989 10.1413 23.9989 10.3355V18.8195C23.9989 19.0136 23.8415 19.171 23.6474 19.171ZM13.3588 18.4679H23.2958V10.687H13.3588V18.4679ZM16.8039 3.14048C16.6097 3.14048 16.4524 2.98309 16.4524 2.78894V0.351547C16.4524 0.157393 16.6097 0 16.8039 0C16.9981 0 17.1555 0.157393 17.1555 0.351547V2.78894C17.1555 2.98309 16.9981 3.14048 16.8039 3.14048ZM18.3273 3.14048C18.1331 3.14048 17.9757 2.98309 17.9757 2.78894V0.351547C17.9757 0.157393 18.1331 0 18.3273 0C18.5215 0 18.6788 0.157393 18.6788 0.351547V2.78894C18.6788 2.98309 18.5215 3.14048 18.3273 3.14048ZM19.8506 3.14048C19.6565 3.14048 19.4991 2.98309 19.4991 2.78894V0.351547C19.4991 0.157393 19.6565 0 19.8506 0C20.0448 0 20.2022 0.157393 20.2022 0.351547V2.78894C20.2022 2.98309 20.0448 3.14048 19.8506 3.14048Z" fill="#000636"/>
<rect x="0.35154" y="3.25757" width="12.9369" height="20.3897" fill="#C0C7FF"/>
<path d="M11.4135 23.9988H2.22646C0.9974 23.9974 0.00139594 23.0014 0 21.7723L1.78806e-07 5.13247C0.00139504 3.9034 0.9974 2.9074 2.22646 2.90601H11.4135C12.6426 2.9074 13.6386 3.9034 13.64 5.13247V21.7723C13.6386 23.0014 12.6426 23.9974 11.4135 23.9988ZM2.22646 3.6091C1.38553 3.61005 0.704049 4.29153 0.703094 5.13247V21.7723C0.70405 22.6133 1.38553 23.2948 2.22646 23.2957H11.4135C12.2545 23.2948 12.936 22.6133 12.9369 21.7723V5.13247C12.936 4.29153 12.2545 3.61005 11.4135 3.6091H2.22646Z" fill="#000636"/>
<ellipse cx="3.84991" cy="6.84289" rx="1.28677" ry="1.7157" fill="#3C458F"/>
<path d="M4.07794 8.55429C3.10717 8.55429 2.32021 7.76733 2.32021 6.79655C2.32021 5.82579 3.10717 5.03882 4.07794 5.03882C5.04871 5.03882 5.83567 5.82579 5.83567 6.79655C5.83459 7.76688 5.04826 8.55321 4.07794 8.55429ZM4.07794 5.74191C3.49548 5.74191 3.0233 6.2141 3.0233 6.79655C3.0233 7.37901 3.49548 7.8512 4.07794 7.8512C4.6604 7.8512 5.13258 7.37901 5.13258 6.79655C5.13191 6.21438 4.66013 5.74259 4.07794 5.74191Z" fill="#000636"/>
<path d="M5.05571 8.1259C4.96245 8.12601 4.873 8.08894 4.80714 8.02292L2.8516 6.06742C2.71431 5.93014 2.7143 5.70756 2.85158 5.57026C2.98886 5.43297 3.21145 5.43296 3.34874 5.57024L5.30428 7.52573C5.40481 7.62627 5.43488 7.77747 5.38047 7.90883C5.32606 8.04018 5.19789 8.12589 5.05571 8.1259Z" fill="#000636"/>
<ellipse cx="3.84991" cy="11.1322" rx="1.28677" ry="1.7157" fill="#3C458F"/>
<path d="M4.07794 12.9603C3.10717 12.9603 2.32021 12.1733 2.32021 11.2026C2.32021 10.2318 3.10717 9.44482 4.07794 9.44482C5.04871 9.44482 5.83567 10.2318 5.83567 11.2026C5.83459 12.1729 5.04826 12.9592 4.07794 12.9603ZM4.07794 10.1479C3.49548 10.1479 3.0233 10.6201 3.0233 11.2026C3.0233 11.785 3.49548 12.2572 4.07794 12.2572C4.6604 12.2572 5.13258 11.785 5.13258 11.2026C5.13191 10.6204 4.66013 10.1486 4.07794 10.1479Z" fill="#000636"/>
<path d="M5.05571 12.5319C4.96245 12.532 4.873 12.495 4.80714 12.4289L2.8516 10.4734C2.71431 10.3362 2.7143 10.1136 2.85158 9.97626C2.98886 9.83898 3.21145 9.83896 3.34874 9.97625L5.30428 11.9317C5.40481 12.0323 5.43488 12.1835 5.38047 12.3148C5.32606 12.4462 5.19789 12.5319 5.05571 12.5319Z" fill="#000636"/>
<circle cx="3.98519" cy="15.7153" r="1.42205" fill="#3C458F"/>
<path d="M4.07794 17.3665C3.10717 17.3665 2.32021 16.5796 2.32021 15.6088C2.32021 14.638 3.10717 13.8511 4.07794 13.8511C5.04871 13.8511 5.83567 14.638 5.83567 15.6088C5.83459 16.5791 5.04826 17.3654 4.07794 17.3665ZM4.07794 14.5542C3.49548 14.5542 3.0233 15.0263 3.0233 15.6088C3.0233 16.1913 3.49548 16.6635 4.07794 16.6635C4.6604 16.6635 5.13258 16.1913 5.13258 15.6088C5.13191 15.0266 4.66013 14.5548 4.07794 14.5542Z" fill="#000636"/>
<path d="M5.05571 16.9379C4.96245 16.938 4.873 16.901 4.80714 16.8349L2.8516 14.8794C2.71431 14.7422 2.7143 14.5196 2.85158 14.3823C2.98886 14.245 3.21145 14.245 3.34874 14.3823L5.30428 16.3378C5.40481 16.4383 5.43488 16.5895 5.38047 16.7208C5.32606 16.8522 5.19789 16.9379 5.05571 16.9379Z" fill="#000636"/>
<ellipse cx="3.98519" cy="20.1396" rx="1.42205" ry="1.28677" fill="#3C458F"/>
<path d="M4.07794 21.7726C3.10717 21.7726 2.32021 20.9856 2.32021 20.0148C2.32021 19.0441 3.10717 18.2571 4.07794 18.2571C5.04871 18.2571 5.83567 19.0441 5.83567 20.0148C5.83459 20.9851 5.04826 21.7715 4.07794 21.7726ZM4.07794 18.9602C3.49548 18.9602 3.0233 19.4323 3.0233 20.0148C3.0233 20.5973 3.49548 21.0695 4.07794 21.0695C4.6604 21.0695 5.13258 20.5973 5.13258 20.0148C5.13191 19.4326 4.66012 18.9608 4.07794 18.9602Z" fill="#000636"/>
<path d="M5.05571 21.3441C4.96245 21.3443 4.873 21.3072 4.80714 21.2412L2.8516 19.2857C2.71431 19.1484 2.7143 18.9259 2.85158 18.7885C2.98886 18.6513 3.21145 18.6512 3.34874 18.7885L5.30428 20.744C5.40481 20.8445 5.43488 20.9957 5.38047 21.1271C5.32606 21.2584 5.19789 21.3441 5.05571 21.3441Z" fill="#000636"/>
<ellipse cx="9.68719" cy="6.84289" rx="1.45443" ry="1.7157" fill="#3C458F"/>
<path d="M9.56207 8.55429C8.59131 8.55429 7.80434 7.76733 7.80434 6.79655C7.80434 5.82579 8.59131 5.03882 9.56207 5.03882C10.5328 5.03882 11.3198 5.82579 11.3198 6.79655C11.3187 7.76688 10.5324 8.5532 9.56207 8.55429ZM9.56207 5.74191C8.97961 5.74191 8.50743 6.2141 8.50743 6.79655C8.50743 7.37901 8.97961 7.8512 9.56207 7.8512C10.1445 7.8512 10.6167 7.37901 10.6167 6.79655C10.616 6.21438 10.1443 5.74259 9.56207 5.74191Z" fill="#000636"/>
<path d="M10.5399 8.1259C10.4466 8.12601 10.3571 8.08894 10.2913 8.02292L8.33572 6.06742C8.19845 5.93014 8.19842 5.70756 8.33572 5.57026C8.47299 5.43297 8.69558 5.43296 8.83288 5.57024L10.7884 7.52573C10.8889 7.62627 10.919 7.77747 10.8646 7.90883C10.8102 8.04018 10.682 8.12589 10.5399 8.1259Z" fill="#000636"/>
<ellipse cx="9.71272" cy="11.2167" rx="1.42889" ry="1.63125" fill="#3C458F"/>
<path d="M9.56207 12.9603C8.59131 12.9603 7.80434 12.1733 7.80434 11.2026C7.80434 10.2318 8.59131 9.44482 9.56207 9.44482C10.5328 9.44482 11.3198 10.2318 11.3198 11.2026C11.3187 12.1729 10.5324 12.9592 9.56207 12.9603ZM9.56207 10.1479C8.97961 10.1479 8.50743 10.6201 8.50743 11.2026C8.50743 11.785 8.97961 12.2572 9.56207 12.2572C10.1445 12.2572 10.6167 11.785 10.6167 11.2026C10.616 10.6204 10.1443 10.1486 9.56207 10.1479Z" fill="#000636"/>
<path d="M10.5399 12.5319C10.4466 12.532 10.3571 12.495 10.2913 12.4289L8.33572 10.4734C8.19845 10.3362 8.19842 10.1136 8.33572 9.97626C8.47299 9.83898 8.69558 9.83896 8.83288 9.97625L10.7884 11.9317C10.8889 12.0323 10.919 12.1835 10.8646 12.3148C10.8102 12.4462 10.682 12.5319 10.5399 12.5319Z" fill="#000636"/>
<circle cx="9.71272" cy="15.7082" r="1.42889" fill="#3C458F"/>
<path d="M9.56207 17.3665C8.59131 17.3665 7.80434 16.5796 7.80434 15.6088C7.80434 14.638 8.59131 13.8511 9.56207 13.8511C10.5328 13.8511 11.3198 14.638 11.3198 15.6088C11.3187 16.5791 10.5324 17.3654 9.56207 17.3665ZM9.56207 14.5542C8.97961 14.5542 8.50743 15.0263 8.50743 15.6088C8.50743 16.1913 8.97961 16.6635 9.56207 16.6635C10.1445 16.6635 10.6167 16.1913 10.6167 15.6088C10.616 15.0266 10.1443 14.5548 9.56207 14.5542Z" fill="#000636"/>
<path d="M10.5399 16.9379C10.4466 16.938 10.3571 16.901 10.2913 16.8349L8.33572 14.8794C8.19846 14.7422 8.19843 14.5196 8.33569 14.3823C8.47299 14.245 8.69559 14.245 8.83289 14.3822L10.7884 16.3377C10.8889 16.4383 10.919 16.5895 10.8646 16.7208C10.8102 16.8522 10.682 16.9379 10.5399 16.9379Z" fill="#000636"/>
<ellipse cx="9.68719" cy="20.1396" rx="1.45443" ry="1.28677" fill="#3C458F"/>
<path d="M9.56207 21.7726C8.59131 21.7726 7.80434 20.9856 7.80434 20.0148C7.80434 19.0441 8.59131 18.2571 9.56207 18.2571C10.5328 18.2571 11.3198 19.0441 11.3198 20.0148C11.3187 20.9851 10.5324 21.7715 9.56207 21.7726ZM9.56207 18.9602C8.97961 18.9602 8.50743 19.4323 8.50743 20.0148C8.50743 20.5973 8.97961 21.0695 9.56207 21.0695C10.1445 21.0695 10.6167 20.5973 10.6167 20.0148C10.616 19.4326 10.1443 18.9608 9.56207 18.9602Z" fill="#000636"/>
<path d="M10.5399 21.3441C10.4466 21.3443 10.3571 21.3072 10.2913 21.2412L8.33572 19.2857C8.19845 19.1484 8.19842 18.9259 8.33572 18.7885C8.47299 18.6513 8.69558 18.6512 8.83288 18.7885L10.7884 20.744C10.8889 20.8445 10.919 20.9957 10.8646 21.1271C10.8102 21.2584 10.682 21.3441 10.5399 21.3441Z" fill="#000636"/>
</svg>
