<svg width="360" height="280" viewBox="0 0 360 280" fill="none" xmlns="http://www.w3.org/2000/svg">
<path d="M23 30C23 29.4477 23.4477 29 24 29C24.5523 29 25 29.4477 25 30V90C25 90.5523 24.5523 91 24 91C23.4477 91 23 90.5523 23 90V30Z" fill="#3C458F"/>
<circle cx="24" cy="24" r="6" fill="#3C458F"/>
<path opacity="0.1" d="M48 24C48 10.7452 58.7452 0 72 0C85.2548 0 96 10.7452 96 24C96 37.2548 85.2548 48 72 48C58.7452 48 48 37.2548 48 24Z" fill="#3C458F"/>
<path fill-rule="evenodd" clip-rule="evenodd" d="M63.7015 12.9941C63.3152 12.9941 63.0009 13.3062 63.0009 13.69V34.3098C63.0009 34.6935 63.3152 35.0057 63.7015 35.0057H81.2985C81.6848 35.0057 81.9991 34.6935 81.9991 34.3098V13.69C81.9991 13.3062 81.6848 12.9941 81.2985 12.9941H63.7015ZM81.2985 35.9999H63.7015C62.7633 35.9999 62 35.2416 62 34.3099V13.69C62 12.7581 62.7633 12 63.7015 12H81.2984C82.2366 12 83 12.7582 83 13.69V34.3099C83 35.2417 82.2367 35.9999 81.2985 35.9999Z" fill="#3C458F" stroke="#3C458F" stroke-width="0.3"/>
<path fill-rule="evenodd" clip-rule="evenodd" d="M65.5014 32.995H79.4983V12.9942H65.5014V32.995ZM79.9987 33.9891H65.0009C64.7247 33.9891 64.5004 33.7667 64.5004 33.4921V12.497C64.5004 12.2227 64.7247 12 65.0009 12H79.9987C80.275 12 80.4992 12.2227 80.4992 12.497V33.492C80.4992 33.7667 80.275 33.9891 79.9987 33.9891Z" fill="#3C458F" stroke="#3C458F" stroke-width="0.3"/>
<path fill-rule="evenodd" clip-rule="evenodd" d="M68.4808 14.6493H76.5194V12.9942H68.4808V14.6493ZM77.0198 15.6435H67.9803C67.7041 15.6435 67.4799 15.4211 67.4799 15.1464V12.497C67.4799 12.2227 67.7041 12 67.9804 12H77.0199C77.2961 12 77.5203 12.2227 77.5203 12.497V15.1464C77.5203 15.4211 77.2961 15.6435 77.0198 15.6435ZM77.1742 20.5519H71.2026C70.926 20.5519 70.702 20.3295 70.702 20.0548C70.702 19.7801 70.926 19.5577 71.2026 19.5577H77.1742C77.4505 19.5577 77.6747 19.7801 77.6747 20.0548C77.6747 20.3295 77.4505 20.5519 77.1742 20.5519ZM68.2537 20.8566C68.1333 20.8567 68.0169 20.8136 67.926 20.7353L67.1526 20.0702C66.9438 19.8906 66.9214 19.5765 67.1023 19.369C67.2828 19.1612 67.5988 19.1384 67.8082 19.3187L68.2167 19.6699L69.1365 18.6904C69.325 18.4892 69.6413 18.479 69.8442 18.6659C70.0461 18.8531 70.057 19.1676 69.8685 19.3684L68.6197 20.6985C68.5251 20.7993 68.3925 20.8566 68.2537 20.8566ZM77.1742 24.2615H71.2025C70.9259 24.2615 70.702 24.0391 70.702 23.7644C70.702 23.4897 70.9259 23.2674 71.2025 23.2674H77.1741C77.4504 23.2674 77.6746 23.4897 77.6746 23.7644C77.6746 24.0391 77.4505 24.2615 77.1742 24.2615ZM68.2536 24.5661C68.1372 24.5661 68.0208 24.526 67.926 24.4449L67.1526 23.7798C66.9437 23.6002 66.9213 23.286 67.1022 23.0786C67.2827 22.8711 67.5987 22.8483 67.8082 23.0282L68.2166 23.3795L69.1365 22.3999C69.325 22.1988 69.6419 22.1885 69.8441 22.3754C70.046 22.563 70.057 22.8771 69.8685 23.0779L68.6196 24.4081C68.5251 24.5089 68.3925 24.5662 68.2536 24.5661ZM77.1742 27.8923H71.2025C70.9259 27.8923 70.702 27.67 70.702 27.3953C70.702 27.1206 70.9259 26.8983 71.2025 26.8983H77.1741C77.4504 26.8983 77.6746 27.1206 77.6746 27.3953C77.6746 27.67 77.4505 27.8923 77.1742 27.8923ZM68.2536 28.197C68.1372 28.197 68.0208 28.1569 67.926 28.0757L67.1526 27.4107C66.9437 27.2311 66.9213 26.9169 67.1022 26.7095C67.2827 26.502 67.5987 26.4792 67.8082 26.6591L68.2166 27.0104L69.1365 26.0309C69.325 25.8296 69.6419 25.8194 69.8441 26.0063C70.046 26.1939 70.057 26.508 69.8685 26.7088L68.6196 28.0389C68.5251 28.1398 68.3925 28.1971 68.2536 28.197Z" fill="#3C458F" stroke="#3C458F" stroke-width="0.3"/>
<path d="M117.488 20.098C116.583 20.098 115.747 19.888 114.982 19.468C114.226 19.0387 113.624 18.446 113.176 17.69C112.737 16.9247 112.518 16.066 112.518 15.114C112.518 14.162 112.737 13.308 113.176 12.552C113.624 11.796 114.226 11.208 114.982 10.788C115.747 10.3587 116.583 10.144 117.488 10.144C118.403 10.144 119.238 10.3587 119.994 10.788C120.759 11.208 121.361 11.796 121.8 12.552C122.239 13.308 122.458 14.162 122.458 15.114C122.458 16.066 122.239 16.9247 121.8 17.69C121.361 18.446 120.759 19.0387 119.994 19.468C119.238 19.888 118.403 20.098 117.488 20.098ZM117.488 18.712C118.132 18.712 118.706 18.5673 119.21 18.278C119.714 17.9793 120.106 17.5593 120.386 17.018C120.675 16.4673 120.82 15.8327 120.82 15.114C120.82 14.3953 120.675 13.7653 120.386 13.224C120.106 12.6827 119.714 12.2673 119.21 11.978C118.706 11.6887 118.132 11.544 117.488 11.544C116.844 11.544 116.27 11.6887 115.766 11.978C115.262 12.2673 114.865 12.6827 114.576 13.224C114.296 13.7653 114.156 14.3953 114.156 15.114C114.156 15.8327 114.296 16.4673 114.576 17.018C114.865 17.5593 115.262 17.9793 115.766 18.278C116.27 18.5673 116.844 18.712 117.488 18.712ZM125.625 13.406C125.858 13.014 126.166 12.7107 126.549 12.496C126.941 12.272 127.403 12.16 127.935 12.16V13.812H127.529C126.903 13.812 126.427 13.9707 126.101 14.288C125.783 14.6053 125.625 15.156 125.625 15.94V20H124.029V12.286H125.625V13.406ZM128.87 16.108C128.87 15.3333 129.028 14.6473 129.346 14.05C129.672 13.4527 130.111 12.9907 130.662 12.664C131.222 12.328 131.842 12.16 132.524 12.16C133.028 12.16 133.522 12.272 134.008 12.496C134.502 12.7107 134.894 13 135.184 13.364V9.64H136.794V20H135.184V18.838C134.922 19.2113 134.558 19.5193 134.092 19.762C133.634 20.0047 133.107 20.126 132.51 20.126C131.838 20.126 131.222 19.958 130.662 19.622C130.111 19.2767 129.672 18.8007 129.346 18.194C129.028 17.578 128.87 16.8827 128.87 16.108ZM135.184 16.136C135.184 15.604 135.072 15.142 134.848 14.75C134.633 14.358 134.348 14.0593 133.994 13.854C133.639 13.6487 133.256 13.546 132.846 13.546C132.435 13.546 132.052 13.6487 131.698 13.854C131.343 14.05 131.054 14.344 130.83 14.736C130.615 15.1187 130.508 15.576 130.508 16.108C130.508 16.64 130.615 17.1067 130.83 17.508C131.054 17.9093 131.343 18.2173 131.698 18.432C132.062 18.6373 132.444 18.74 132.846 18.74C133.256 18.74 133.639 18.6373 133.994 18.432C134.348 18.2267 134.633 17.928 134.848 17.536C135.072 17.1347 135.184 16.668 135.184 16.136ZM145.96 15.954C145.96 16.2433 145.941 16.5047 145.904 16.738H140.01C140.057 17.354 140.285 17.8487 140.696 18.222C141.107 18.5953 141.611 18.782 142.208 18.782C143.067 18.782 143.673 18.4227 144.028 17.704H145.75C145.517 18.4133 145.092 18.9967 144.476 19.454C143.869 19.902 143.113 20.126 142.208 20.126C141.471 20.126 140.808 19.9627 140.22 19.636C139.641 19.3 139.184 18.8333 138.848 18.236C138.521 17.6293 138.358 16.9293 138.358 16.136C138.358 15.3427 138.517 14.6473 138.834 14.05C139.161 13.4433 139.613 12.9767 140.192 12.65C140.78 12.3233 141.452 12.16 142.208 12.16C142.936 12.16 143.585 12.3187 144.154 12.636C144.723 12.9533 145.167 13.4013 145.484 13.98C145.801 14.5493 145.96 15.2073 145.96 15.954ZM144.294 15.45C144.285 14.862 144.075 14.3907 143.664 14.036C143.253 13.6813 142.745 13.504 142.138 13.504C141.587 13.504 141.116 13.6813 140.724 14.036C140.332 14.3813 140.099 14.8527 140.024 15.45H144.294ZM149.126 13.406C149.36 13.014 149.668 12.7107 150.05 12.496C150.442 12.272 150.904 12.16 151.436 12.16V13.812H151.03C150.405 13.812 149.929 13.9707 149.602 14.288C149.285 14.6053 149.126 15.156 149.126 15.94V20H147.53V12.286H149.126V13.406ZM163.344 13.168C163.344 13.6627 163.228 14.1293 162.994 14.568C162.761 15.0067 162.388 15.366 161.874 15.646C161.361 15.9167 160.703 16.052 159.9 16.052H158.136V20H156.54V10.27H159.9C160.647 10.27 161.277 10.4007 161.79 10.662C162.313 10.914 162.7 11.2593 162.952 11.698C163.214 12.1367 163.344 12.6267 163.344 13.168ZM159.9 14.75C160.507 14.75 160.96 14.6147 161.258 14.344C161.557 14.064 161.706 13.672 161.706 13.168C161.706 12.104 161.104 11.572 159.9 11.572H158.136V14.75H159.9ZM166.462 9.64V20H164.866V9.64H166.462ZM168.026 16.108C168.026 15.3333 168.184 14.6473 168.502 14.05C168.828 13.4527 169.267 12.9907 169.818 12.664C170.378 12.328 170.994 12.16 171.666 12.16C172.272 12.16 172.8 12.2813 173.248 12.524C173.705 12.7573 174.069 13.0513 174.34 13.406V12.286H175.95V20H174.34V18.852C174.069 19.216 173.7 19.5193 173.234 19.762C172.767 20.0047 172.235 20.126 171.638 20.126C170.975 20.126 170.368 19.958 169.818 19.622C169.267 19.2767 168.828 18.8007 168.502 18.194C168.184 17.578 168.026 16.8827 168.026 16.108ZM174.34 16.136C174.34 15.604 174.228 15.142 174.004 14.75C173.789 14.358 173.504 14.0593 173.15 13.854C172.795 13.6487 172.412 13.546 172.002 13.546C171.591 13.546 171.208 13.6487 170.854 13.854C170.499 14.05 170.21 14.344 169.986 14.736C169.771 15.1187 169.664 15.576 169.664 16.108C169.664 16.64 169.771 17.1067 169.986 17.508C170.21 17.9093 170.499 18.2173 170.854 18.432C171.218 18.6373 171.6 18.74 172.002 18.74C172.412 18.74 172.795 18.6373 173.15 18.432C173.504 18.2267 173.789 17.928 174.004 17.536C174.228 17.1347 174.34 16.668 174.34 16.136ZM177.514 16.136C177.514 15.3427 177.673 14.6473 177.99 14.05C178.317 13.4433 178.765 12.9767 179.334 12.65C179.903 12.3233 180.557 12.16 181.294 12.16C182.227 12.16 182.997 12.384 183.604 12.832C184.22 13.2707 184.635 13.9007 184.85 14.722H183.128C182.988 14.3393 182.764 14.0407 182.456 13.826C182.148 13.6113 181.761 13.504 181.294 13.504C180.641 13.504 180.118 13.7373 179.726 14.204C179.343 14.6613 179.152 15.3053 179.152 16.136C179.152 16.9667 179.343 17.6153 179.726 18.082C180.118 18.5487 180.641 18.782 181.294 18.782C182.218 18.782 182.829 18.376 183.128 17.564H184.85C184.626 18.348 184.206 18.9733 183.59 19.44C182.974 19.8973 182.209 20.126 181.294 20.126C180.557 20.126 179.903 19.9627 179.334 19.636C178.765 19.3 178.317 18.8333 177.99 18.236C177.673 17.6293 177.514 16.9293 177.514 16.136ZM193.511 15.954C193.511 16.2433 193.492 16.5047 193.455 16.738H187.561C187.607 17.354 187.836 17.8487 188.247 18.222C188.657 18.5953 189.161 18.782 189.759 18.782C190.617 18.782 191.224 18.4227 191.579 17.704H193.301C193.067 18.4133 192.643 18.9967 192.027 19.454C191.42 19.902 190.664 20.126 189.759 20.126C189.021 20.126 188.359 19.9627 187.771 19.636C187.192 19.3 186.735 18.8333 186.399 18.236C186.072 17.6293 185.909 16.9293 185.909 16.136C185.909 15.3427 186.067 14.6473 186.385 14.05C186.711 13.4433 187.164 12.9767 187.743 12.65C188.331 12.3233 189.003 12.16 189.759 12.16C190.487 12.16 191.135 12.3187 191.705 12.636C192.274 12.9533 192.717 13.4013 193.035 13.98C193.352 14.5493 193.511 15.2073 193.511 15.954ZM191.845 15.45C191.835 14.862 191.625 14.3907 191.215 14.036C190.804 13.6813 190.295 13.504 189.689 13.504C189.138 13.504 188.667 13.6813 188.275 14.036C187.883 14.3813 187.649 14.8527 187.575 15.45H191.845ZM194.549 16.108C194.549 15.3333 194.708 14.6473 195.025 14.05C195.352 13.4527 195.791 12.9907 196.341 12.664C196.901 12.328 197.522 12.16 198.203 12.16C198.707 12.16 199.202 12.272 199.687 12.496C200.182 12.7107 200.574 13 200.863 13.364V9.64H202.473V20H200.863V18.838C200.602 19.2113 200.238 19.5193 199.771 19.762C199.314 20.0047 198.787 20.126 198.189 20.126C197.517 20.126 196.901 19.958 196.341 19.622C195.791 19.2767 195.352 18.8007 195.025 18.194C194.708 17.578 194.549 16.8827 194.549 16.108ZM200.863 16.136C200.863 15.604 200.751 15.142 200.527 14.75C200.313 14.358 200.028 14.0593 199.673 13.854C199.319 13.6487 198.936 13.546 198.525 13.546C198.115 13.546 197.732 13.6487 197.377 13.854C197.023 14.05 196.733 14.344 196.509 14.736C196.295 15.1187 196.187 15.576 196.187 16.108C196.187 16.64 196.295 17.1067 196.509 17.508C196.733 17.9093 197.023 18.2173 197.377 18.432C197.741 18.6373 198.124 18.74 198.525 18.74C198.936 18.74 199.319 18.6373 199.673 18.432C200.028 18.2267 200.313 17.928 200.527 17.536C200.751 17.1347 200.863 16.668 200.863 16.136Z" fill="#3C458F"/>
<path d="M112.612 41.124C113.628 40.308 114.424 39.64 115 39.12C115.576 38.592 116.06 38.044 116.452 37.476C116.852 36.9 117.052 36.336 117.052 35.784C117.052 35.264 116.924 34.856 116.668 34.56C116.42 34.256 116.016 34.104 115.456 34.104C114.912 34.104 114.488 34.276 114.184 34.62C113.888 34.956 113.728 35.408 113.704 35.976H112.648C112.68 35.08 112.952 34.388 113.464 33.9C113.976 33.412 114.636 33.168 115.444 33.168C116.268 33.168 116.92 33.396 117.4 33.852C117.888 34.308 118.132 34.936 118.132 35.736C118.132 36.4 117.932 37.048 117.532 37.68C117.14 38.304 116.692 38.856 116.188 39.336C115.684 39.808 115.04 40.36 114.256 40.992H118.384V41.904H112.612V41.124ZM119.646 37.572C119.646 36.196 119.87 35.124 120.318 34.356C120.766 33.58 121.55 33.192 122.67 33.192C123.782 33.192 124.562 33.58 125.01 34.356C125.458 35.124 125.682 36.196 125.682 37.572C125.682 38.972 125.458 40.06 125.01 40.836C124.562 41.612 123.782 42 122.67 42C121.55 42 120.766 41.612 120.318 40.836C119.87 40.06 119.646 38.972 119.646 37.572ZM124.602 37.572C124.602 36.876 124.554 36.288 124.458 35.808C124.37 35.32 124.182 34.928 123.894 34.632C123.614 34.336 123.206 34.188 122.67 34.188C122.126 34.188 121.71 34.336 121.422 34.632C121.142 34.928 120.954 35.32 120.858 35.808C120.77 36.288 120.726 36.876 120.726 37.572C120.726 38.292 120.77 38.896 120.858 39.384C120.954 39.872 121.142 40.264 121.422 40.56C121.71 40.856 122.126 41.004 122.67 41.004C123.206 41.004 123.614 40.856 123.894 40.56C124.182 40.264 124.37 39.872 124.458 39.384C124.554 38.896 124.602 38.292 124.602 37.572ZM139.045 33.696V42H137.953V35.808L135.193 42H134.425L131.653 35.796V42H130.561V33.696H131.737L134.809 40.56L137.881 33.696H139.045ZM140.489 38.688C140.489 38.016 140.625 37.428 140.897 36.924C141.169 36.412 141.541 36.016 142.013 35.736C142.493 35.456 143.025 35.316 143.609 35.316C144.185 35.316 144.685 35.44 145.109 35.688C145.533 35.936 145.849 36.248 146.057 36.624V35.424H147.161V42H146.057V40.776C145.841 41.16 145.517 41.48 145.085 41.736C144.661 41.984 144.165 42.108 143.597 42.108C143.013 42.108 142.485 41.964 142.013 41.676C141.541 41.388 141.169 40.984 140.897 40.464C140.625 39.944 140.489 39.352 140.489 38.688ZM146.057 38.7C146.057 38.204 145.957 37.772 145.757 37.404C145.557 37.036 145.285 36.756 144.941 36.564C144.605 36.364 144.233 36.264 143.825 36.264C143.417 36.264 143.045 36.36 142.709 36.552C142.373 36.744 142.105 37.024 141.905 37.392C141.705 37.76 141.605 38.192 141.605 38.688C141.605 39.192 141.705 39.632 141.905 40.008C142.105 40.376 142.373 40.66 142.709 40.86C143.045 41.052 143.417 41.148 143.825 41.148C144.233 41.148 144.605 41.052 144.941 40.86C145.285 40.66 145.557 40.376 145.757 40.008C145.957 39.632 146.057 39.196 146.057 38.7ZM150.098 36.492C150.29 36.116 150.562 35.824 150.914 35.616C151.274 35.408 151.71 35.304 152.222 35.304V36.432H151.934C150.71 36.432 150.098 37.096 150.098 38.424V42H149.006V35.424H150.098V36.492ZM156.37 41.124C157.386 40.308 158.182 39.64 158.758 39.12C159.334 38.592 159.818 38.044 160.21 37.476C160.61 36.9 160.81 36.336 160.81 35.784C160.81 35.264 160.682 34.856 160.426 34.56C160.178 34.256 159.774 34.104 159.214 34.104C158.67 34.104 158.246 34.276 157.942 34.62C157.646 34.956 157.486 35.408 157.462 35.976H156.406C156.438 35.08 156.71 34.388 157.222 33.9C157.734 33.412 158.394 33.168 159.202 33.168C160.026 33.168 160.678 33.396 161.158 33.852C161.646 34.308 161.89 34.936 161.89 35.736C161.89 36.4 161.69 37.048 161.29 37.68C160.898 38.304 160.45 38.856 159.946 39.336C159.442 39.808 158.798 40.36 158.014 40.992H162.142V41.904H156.37V41.124ZM163.404 37.572C163.404 36.196 163.628 35.124 164.076 34.356C164.524 33.58 165.308 33.192 166.428 33.192C167.54 33.192 168.32 33.58 168.768 34.356C169.216 35.124 169.44 36.196 169.44 37.572C169.44 38.972 169.216 40.06 168.768 40.836C168.32 41.612 167.54 42 166.428 42C165.308 42 164.524 41.612 164.076 40.836C163.628 40.06 163.404 38.972 163.404 37.572ZM168.36 37.572C168.36 36.876 168.312 36.288 168.216 35.808C168.128 35.32 167.94 34.928 167.652 34.632C167.372 34.336 166.964 34.188 166.428 34.188C165.884 34.188 165.468 34.336 165.18 34.632C164.9 34.928 164.712 35.32 164.616 35.808C164.528 36.288 164.484 36.876 164.484 37.572C164.484 38.292 164.528 38.896 164.616 39.384C164.712 39.872 164.9 40.264 165.18 40.56C165.468 40.856 165.884 41.004 166.428 41.004C166.964 41.004 167.372 40.856 167.652 40.56C167.94 40.264 168.128 39.872 168.216 39.384C168.312 38.896 168.36 38.292 168.36 37.572ZM170.807 41.124C171.823 40.308 172.619 39.64 173.195 39.12C173.771 38.592 174.255 38.044 174.647 37.476C175.047 36.9 175.247 36.336 175.247 35.784C175.247 35.264 175.119 34.856 174.863 34.56C174.615 34.256 174.211 34.104 173.651 34.104C173.107 34.104 172.683 34.276 172.379 34.62C172.083 34.956 171.923 35.408 171.899 35.976H170.843C170.875 35.08 171.147 34.388 171.659 33.9C172.171 33.412 172.831 33.168 173.639 33.168C174.463 33.168 175.115 33.396 175.595 33.852C176.083 34.308 176.327 34.936 176.327 35.736C176.327 36.4 176.127 37.048 175.727 37.68C175.335 38.304 174.887 38.856 174.383 39.336C173.879 39.808 173.235 40.36 172.451 40.992H176.579V41.904H170.807V41.124ZM177.578 40.068V39.24L181.79 33.408H183.098V39.12H184.298V40.068H183.098V42H182.018V40.068H177.578ZM182.066 34.548L178.838 39.12H182.066V34.548Z" fill="#444444"/>
<path d="M23 102C23 101.448 23.4477 101 24 101C24.5523 101 25 101.448 25 102V162C25 162.552 24.5523 163 24 163C23.4477 163 23 162.552 23 162V102Z" fill="#FFA000"/>
<circle cx="24" cy="96" r="6" fill="#FFA000"/>
<path opacity="0.1" d="M48 96C48 82.7452 58.7452 72 72 72C85.2548 72 96 82.7452 96 96C96 109.255 85.2548 120 72 120C58.7452 120 48 109.255 48 96Z" fill="#FFA000"/>
<path d="M70.0143 88.71V88.7128C70.01 88.7127 70.0057 88.7127 70.0014 88.7128C69.9896 88.7122 69.9778 88.7122 69.9661 88.7128C69.9542 88.7146 69.9424 88.717 69.9308 88.72C69.919 88.7232 69.9075 88.727 69.8962 88.7314C69.8837 88.7347 69.8715 88.7388 69.8594 88.7435L61.2572 92.6077C61.105 92.6522 61.0001 92.794 61 92.9554V103.558C60.9996 103.699 61.0798 103.827 61.2053 103.887L69.8508 107.966C69.8889 107.984 69.9299 107.995 69.9718 107.998C69.9747 107.999 69.9776 107.999 69.9805 107.999C69.9833 108 69.9862 108 69.9891 107.999C70.0467 108.002 70.104 107.991 70.1563 107.966L78.8046 103.884C78.9305 103.825 79.0112 103.697 79.0114 103.556V92.9461C79.0109 92.7707 78.887 92.6208 78.7174 92.5906H78.716L70.1519 88.7378C70.1083 88.7193 70.0616 88.7098 70.0143 88.71ZM70.0129 89.4668L77.68 92.9147L74.4235 94.0893C74.4023 94.0731 74.3793 94.0595 74.3551 94.0486L67.0886 90.7813L70.0129 89.4668ZM66.2089 91.1761L66.25 91.194L66.286 91.2104L66.3278 91.229L73.4574 94.4363L69.9956 95.6843L62.3242 92.9204L66.2089 91.1761ZM78.301 93.4588V103.323L70.3616 107.068V96.3205L78.301 93.4588ZM61.7104 93.4667L69.644 96.3269V107.069L61.7104 103.326L61.7104 93.4667Z" fill="#FFA000" stroke="#FFA000"/>
<path d="M83 91.065C83 94.4062 80.2645 97.13 76.8712 97.13C73.4778 97.13 70.7423 94.4062 70.7423 91.065C70.7423 87.7239 73.4778 85 76.8712 85C80.2645 85 83 87.7239 83 91.065Z" fill="#FFF5E5" stroke="#FFA000" stroke-width="2"/>
<path d="M76.0067 93.4197C75.8425 93.4197 75.6782 93.3597 75.5486 93.2312L73.8197 91.5178C73.569 91.2694 73.569 90.8581 73.8197 90.6097C74.0704 90.3613 74.4853 90.3613 74.736 90.6097L76.0067 91.8691L79.0063 88.8963C79.257 88.6478 79.672 88.6478 79.9226 88.8963C80.1733 89.1447 80.1733 89.556 79.9226 89.8044L76.4649 93.2312C76.3352 93.3597 76.171 93.4197 76.0067 93.4197Z" fill="#FFA000"/>
<path d="M117.488 92.098C116.583 92.098 115.747 91.888 114.982 91.468C114.226 91.0387 113.624 90.446 113.176 89.69C112.737 88.9247 112.518 88.066 112.518 87.114C112.518 86.162 112.737 85.308 113.176 84.552C113.624 83.796 114.226 83.208 114.982 82.788C115.747 82.3587 116.583 82.144 117.488 82.144C118.403 82.144 119.238 82.3587 119.994 82.788C120.759 83.208 121.361 83.796 121.8 84.552C122.239 85.308 122.458 86.162 122.458 87.114C122.458 88.066 122.239 88.9247 121.8 89.69C121.361 90.446 120.759 91.0387 119.994 91.468C119.238 91.888 118.403 92.098 117.488 92.098ZM117.488 90.712C118.132 90.712 118.706 90.5673 119.21 90.278C119.714 89.9793 120.106 89.5593 120.386 89.018C120.675 88.4673 120.82 87.8327 120.82 87.114C120.82 86.3953 120.675 85.7653 120.386 85.224C120.106 84.6827 119.714 84.2673 119.21 83.978C118.706 83.6887 118.132 83.544 117.488 83.544C116.844 83.544 116.27 83.6887 115.766 83.978C115.262 84.2673 114.865 84.6827 114.576 85.224C114.296 85.7653 114.156 86.3953 114.156 87.114C114.156 87.8327 114.296 88.4673 114.576 89.018C114.865 89.5593 115.262 89.9793 115.766 90.278C116.27 90.5673 116.844 90.712 117.488 90.712ZM125.625 85.406C125.858 85.014 126.166 84.7107 126.549 84.496C126.941 84.272 127.403 84.16 127.935 84.16V85.812H127.529C126.903 85.812 126.427 85.9707 126.101 86.288C125.783 86.6053 125.625 87.156 125.625 87.94V92H124.029V84.286H125.625V85.406ZM128.87 88.108C128.87 87.3333 129.028 86.6473 129.346 86.05C129.672 85.4527 130.111 84.9907 130.662 84.664C131.222 84.328 131.842 84.16 132.524 84.16C133.028 84.16 133.522 84.272 134.008 84.496C134.502 84.7107 134.894 85 135.184 85.364V81.64H136.794V92H135.184V90.838C134.922 91.2113 134.558 91.5193 134.092 91.762C133.634 92.0047 133.107 92.126 132.51 92.126C131.838 92.126 131.222 91.958 130.662 91.622C130.111 91.2767 129.672 90.8007 129.346 90.194C129.028 89.578 128.87 88.8827 128.87 88.108ZM135.184 88.136C135.184 87.604 135.072 87.142 134.848 86.75C134.633 86.358 134.348 86.0593 133.994 85.854C133.639 85.6487 133.256 85.546 132.846 85.546C132.435 85.546 132.052 85.6487 131.698 85.854C131.343 86.05 131.054 86.344 130.83 86.736C130.615 87.1187 130.508 87.576 130.508 88.108C130.508 88.64 130.615 89.1067 130.83 89.508C131.054 89.9093 131.343 90.2173 131.698 90.432C132.062 90.6373 132.444 90.74 132.846 90.74C133.256 90.74 133.639 90.6373 133.994 90.432C134.348 90.2267 134.633 89.928 134.848 89.536C135.072 89.1347 135.184 88.668 135.184 88.136ZM145.96 87.954C145.96 88.2433 145.941 88.5047 145.904 88.738H140.01C140.057 89.354 140.285 89.8487 140.696 90.222C141.107 90.5953 141.611 90.782 142.208 90.782C143.067 90.782 143.673 90.4227 144.028 89.704H145.75C145.517 90.4133 145.092 90.9967 144.476 91.454C143.869 91.902 143.113 92.126 142.208 92.126C141.471 92.126 140.808 91.9627 140.22 91.636C139.641 91.3 139.184 90.8333 138.848 90.236C138.521 89.6293 138.358 88.9293 138.358 88.136C138.358 87.3427 138.517 86.6473 138.834 86.05C139.161 85.4433 139.613 84.9767 140.192 84.65C140.78 84.3233 141.452 84.16 142.208 84.16C142.936 84.16 143.585 84.3187 144.154 84.636C144.723 84.9533 145.167 85.4013 145.484 85.98C145.801 86.5493 145.96 87.2073 145.96 87.954ZM144.294 87.45C144.285 86.862 144.075 86.3907 143.664 86.036C143.253 85.6813 142.745 85.504 142.138 85.504C141.587 85.504 141.116 85.6813 140.724 86.036C140.332 86.3813 140.099 86.8527 140.024 87.45H144.294ZM149.126 85.406C149.36 85.014 149.668 84.7107 150.05 84.496C150.442 84.272 150.904 84.16 151.436 84.16V85.812H151.03C150.405 85.812 149.929 85.9707 149.602 86.288C149.285 86.6053 149.126 87.156 149.126 87.94V92H147.53V84.286H149.126V85.406ZM156.008 87.114C156.008 86.162 156.228 85.308 156.666 84.552C157.114 83.796 157.716 83.208 158.472 82.788C159.238 82.3587 160.073 82.144 160.978 82.144C162.014 82.144 162.934 82.4007 163.736 82.914C164.548 83.418 165.136 84.1367 165.5 85.07H163.582C163.33 84.5567 162.98 84.174 162.532 83.922C162.084 83.67 161.566 83.544 160.978 83.544C160.334 83.544 159.76 83.6887 159.256 83.978C158.752 84.2673 158.356 84.6827 158.066 85.224C157.786 85.7653 157.646 86.3953 157.646 87.114C157.646 87.8327 157.786 88.4627 158.066 89.004C158.356 89.5453 158.752 89.9653 159.256 90.264C159.76 90.5533 160.334 90.698 160.978 90.698C161.566 90.698 162.084 90.572 162.532 90.32C162.98 90.068 163.33 89.6853 163.582 89.172H165.5C165.136 90.1053 164.548 90.824 163.736 91.328C162.934 91.832 162.014 92.084 160.978 92.084C160.064 92.084 159.228 91.874 158.472 91.454C157.716 91.0247 157.114 90.432 156.666 89.676C156.228 88.92 156.008 88.066 156.008 87.114ZM170.714 92.126C169.986 92.126 169.328 91.9627 168.74 91.636C168.152 91.3 167.69 90.8333 167.354 90.236C167.018 89.6293 166.85 88.9293 166.85 88.136C166.85 87.352 167.023 86.6567 167.368 86.05C167.714 85.4433 168.185 84.9767 168.782 84.65C169.38 84.3233 170.047 84.16 170.784 84.16C171.522 84.16 172.189 84.3233 172.786 84.65C173.384 84.9767 173.855 85.4433 174.2 86.05C174.546 86.6567 174.718 87.352 174.718 88.136C174.718 88.92 174.541 89.6153 174.186 90.222C173.832 90.8287 173.346 91.3 172.73 91.636C172.124 91.9627 171.452 92.126 170.714 92.126ZM170.714 90.74C171.125 90.74 171.508 90.642 171.862 90.446C172.226 90.25 172.52 89.956 172.744 89.564C172.968 89.172 173.08 88.696 173.08 88.136C173.08 87.576 172.973 87.1047 172.758 86.722C172.544 86.33 172.259 86.036 171.904 85.84C171.55 85.644 171.167 85.546 170.756 85.546C170.346 85.546 169.963 85.644 169.608 85.84C169.263 86.036 168.988 86.33 168.782 86.722C168.577 87.1047 168.474 87.576 168.474 88.136C168.474 88.9667 168.684 89.6107 169.104 90.068C169.534 90.516 170.07 90.74 170.714 90.74ZM180.188 84.16C180.795 84.16 181.336 84.286 181.812 84.538C182.297 84.79 182.675 85.1633 182.946 85.658C183.217 86.1527 183.352 86.75 183.352 87.45V92H181.77V87.688C181.77 86.9973 181.597 86.47 181.252 86.106C180.907 85.7327 180.435 85.546 179.838 85.546C179.241 85.546 178.765 85.7327 178.41 86.106C178.065 86.47 177.892 86.9973 177.892 87.688V92H176.296V84.286H177.892V85.168C178.153 84.8507 178.485 84.6033 178.886 84.426C179.297 84.2487 179.731 84.16 180.188 84.16ZM188.622 85.588H187.194V92H185.584V85.588H184.674V84.286H185.584V83.74C185.584 82.8533 185.817 82.2093 186.284 81.808C186.76 81.3973 187.502 81.192 188.51 81.192V82.522C188.025 82.522 187.684 82.6153 187.488 82.802C187.292 82.9793 187.194 83.292 187.194 83.74V84.286H188.622V85.588ZM190.848 83.264C190.559 83.264 190.316 83.166 190.12 82.97C189.924 82.774 189.826 82.5313 189.826 82.242C189.826 81.9527 189.924 81.71 190.12 81.514C190.316 81.318 190.559 81.22 190.848 81.22C191.128 81.22 191.366 81.318 191.562 81.514C191.758 81.71 191.856 81.9527 191.856 82.242C191.856 82.5313 191.758 82.774 191.562 82.97C191.366 83.166 191.128 83.264 190.848 83.264ZM191.632 84.286V92H190.036V84.286H191.632ZM195.324 85.406C195.557 85.014 195.865 84.7107 196.248 84.496C196.64 84.272 197.102 84.16 197.634 84.16V85.812H197.228C196.602 85.812 196.126 85.9707 195.8 86.288C195.482 86.6053 195.324 87.156 195.324 87.94V92H193.728V84.286H195.324V85.406ZM208.439 84.16C209.045 84.16 209.587 84.286 210.063 84.538C210.548 84.79 210.926 85.1633 211.197 85.658C211.477 86.1527 211.617 86.75 211.617 87.45V92H210.035V87.688C210.035 86.9973 209.862 86.47 209.517 86.106C209.171 85.7327 208.7 85.546 208.103 85.546C207.505 85.546 207.029 85.7327 206.675 86.106C206.329 86.47 206.157 86.9973 206.157 87.688V92H204.575V87.688C204.575 86.9973 204.402 86.47 204.057 86.106C203.711 85.7327 203.24 85.546 202.643 85.546C202.045 85.546 201.569 85.7327 201.215 86.106C200.869 86.47 200.697 86.9973 200.697 87.688V92H199.101V84.286H200.697V85.168C200.958 84.8507 201.289 84.6033 201.691 84.426C202.092 84.2487 202.521 84.16 202.979 84.16C203.595 84.16 204.145 84.2907 204.631 84.552C205.116 84.8133 205.489 85.1913 205.751 85.686C205.984 85.2193 206.348 84.8507 206.843 84.58C207.337 84.3 207.869 84.16 208.439 84.16ZM220.718 87.954C220.718 88.2433 220.699 88.5047 220.662 88.738H214.768C214.814 89.354 215.043 89.8487 215.454 90.222C215.864 90.5953 216.368 90.782 216.966 90.782C217.824 90.782 218.431 90.4227 218.786 89.704H220.508C220.274 90.4133 219.85 90.9967 219.234 91.454C218.627 91.902 217.871 92.126 216.966 92.126C216.228 92.126 215.566 91.9627 214.978 91.636C214.399 91.3 213.942 90.8333 213.606 90.236C213.279 89.6293 213.116 88.9293 213.116 88.136C213.116 87.3427 213.274 86.6473 213.592 86.05C213.918 85.4433 214.371 84.9767 214.95 84.65C215.538 84.3233 216.21 84.16 216.966 84.16C217.694 84.16 218.342 84.3187 218.912 84.636C219.481 84.9533 219.924 85.4013 220.242 85.98C220.559 86.5493 220.718 87.2073 220.718 87.954ZM219.052 87.45C219.042 86.862 218.832 86.3907 218.422 86.036C218.011 85.6813 217.502 85.504 216.896 85.504C216.345 85.504 215.874 85.6813 215.482 86.036C215.09 86.3813 214.856 86.8527 214.782 87.45H219.052ZM221.756 88.108C221.756 87.3333 221.915 86.6473 222.232 86.05C222.559 85.4527 222.998 84.9907 223.548 84.664C224.108 84.328 224.729 84.16 225.41 84.16C225.914 84.16 226.409 84.272 226.894 84.496C227.389 84.7107 227.781 85 228.07 85.364V81.64H229.68V92H228.07V90.838C227.809 91.2113 227.445 91.5193 226.978 91.762C226.521 92.0047 225.994 92.126 225.396 92.126C224.724 92.126 224.108 91.958 223.548 91.622C222.998 91.2767 222.559 90.8007 222.232 90.194C221.915 89.578 221.756 88.8827 221.756 88.108ZM228.07 88.136C228.07 87.604 227.958 87.142 227.734 86.75C227.52 86.358 227.235 86.0593 226.88 85.854C226.526 85.6487 226.143 85.546 225.732 85.546C225.322 85.546 224.939 85.6487 224.584 85.854C224.23 86.05 223.94 86.344 223.716 86.736C223.502 87.1187 223.394 87.576 223.394 88.108C223.394 88.64 223.502 89.1067 223.716 89.508C223.94 89.9093 224.23 90.2173 224.584 90.432C224.948 90.6373 225.331 90.74 225.732 90.74C226.143 90.74 226.526 90.6373 226.88 90.432C227.235 90.2267 227.52 89.928 227.734 89.536C227.958 89.1347 228.07 88.668 228.07 88.136Z" fill="#FFA000"/>
<path d="M112.612 113.124C113.628 112.308 114.424 111.64 115 111.12C115.576 110.592 116.06 110.044 116.452 109.476C116.852 108.9 117.052 108.336 117.052 107.784C117.052 107.264 116.924 106.856 116.668 106.56C116.42 106.256 116.016 106.104 115.456 106.104C114.912 106.104 114.488 106.276 114.184 106.62C113.888 106.956 113.728 107.408 113.704 107.976H112.648C112.68 107.08 112.952 106.388 113.464 105.9C113.976 105.412 114.636 105.168 115.444 105.168C116.268 105.168 116.92 105.396 117.4 105.852C117.888 106.308 118.132 106.936 118.132 107.736C118.132 108.4 117.932 109.048 117.532 109.68C117.14 110.304 116.692 110.856 116.188 111.336C115.684 111.808 115.04 112.36 114.256 112.992H118.384V113.904H112.612V113.124ZM119.358 106.32V105.324H121.614V114H120.51V106.32H119.358ZM135.353 105.696V114H134.261V107.808L131.501 114H130.733L127.961 107.796V114H126.869V105.696H128.045L131.117 112.56L134.189 105.696H135.353ZM136.797 110.688C136.797 110.016 136.933 109.428 137.205 108.924C137.477 108.412 137.849 108.016 138.321 107.736C138.801 107.456 139.333 107.316 139.917 107.316C140.493 107.316 140.993 107.44 141.417 107.688C141.841 107.936 142.157 108.248 142.365 108.624V107.424H143.469V114H142.365V112.776C142.149 113.16 141.825 113.48 141.393 113.736C140.969 113.984 140.473 114.108 139.905 114.108C139.321 114.108 138.793 113.964 138.321 113.676C137.849 113.388 137.477 112.984 137.205 112.464C136.933 111.944 136.797 111.352 136.797 110.688ZM142.365 110.7C142.365 110.204 142.265 109.772 142.065 109.404C141.865 109.036 141.593 108.756 141.249 108.564C140.913 108.364 140.541 108.264 140.133 108.264C139.725 108.264 139.353 108.36 139.017 108.552C138.681 108.744 138.413 109.024 138.213 109.392C138.013 109.76 137.913 110.192 137.913 110.688C137.913 111.192 138.013 111.632 138.213 112.008C138.413 112.376 138.681 112.66 139.017 112.86C139.353 113.052 139.725 113.148 140.133 113.148C140.541 113.148 140.913 113.052 141.249 112.86C141.593 112.66 141.865 112.376 142.065 112.008C142.265 111.632 142.365 111.196 142.365 110.7ZM146.407 108.492C146.599 108.116 146.871 107.824 147.223 107.616C147.583 107.408 148.019 107.304 148.531 107.304V108.432H148.243C147.019 108.432 146.407 109.096 146.407 110.424V114H145.315V107.424H146.407V108.492ZM152.678 113.124C153.694 112.308 154.49 111.64 155.066 111.12C155.642 110.592 156.126 110.044 156.518 109.476C156.918 108.9 157.118 108.336 157.118 107.784C157.118 107.264 156.99 106.856 156.734 106.56C156.486 106.256 156.082 106.104 155.522 106.104C154.978 106.104 154.554 106.276 154.25 106.62C153.954 106.956 153.794 107.408 153.77 107.976H152.714C152.746 107.08 153.018 106.388 153.53 105.9C154.042 105.412 154.702 105.168 155.51 105.168C156.334 105.168 156.986 105.396 157.466 105.852C157.954 106.308 158.198 106.936 158.198 107.736C158.198 108.4 157.998 109.048 157.598 109.68C157.206 110.304 156.758 110.856 156.254 111.336C155.75 111.808 155.106 112.36 154.322 112.992H158.45V113.904H152.678V113.124ZM159.713 109.572C159.713 108.196 159.937 107.124 160.385 106.356C160.833 105.58 161.617 105.192 162.737 105.192C163.849 105.192 164.629 105.58 165.077 106.356C165.525 107.124 165.749 108.196 165.749 109.572C165.749 110.972 165.525 112.06 165.077 112.836C164.629 113.612 163.849 114 162.737 114C161.617 114 160.833 113.612 160.385 112.836C159.937 112.06 159.713 110.972 159.713 109.572ZM164.669 109.572C164.669 108.876 164.621 108.288 164.525 107.808C164.437 107.32 164.249 106.928 163.961 106.632C163.681 106.336 163.273 106.188 162.737 106.188C162.193 106.188 161.777 106.336 161.489 106.632C161.209 106.928 161.021 107.32 160.925 107.808C160.837 108.288 160.793 108.876 160.793 109.572C160.793 110.292 160.837 110.896 160.925 111.384C161.021 111.872 161.209 112.264 161.489 112.56C161.777 112.856 162.193 113.004 162.737 113.004C163.273 113.004 163.681 112.856 163.961 112.56C164.249 112.264 164.437 111.872 164.525 111.384C164.621 110.896 164.669 110.292 164.669 109.572ZM167.116 113.124C168.132 112.308 168.928 111.64 169.504 111.12C170.08 110.592 170.564 110.044 170.956 109.476C171.356 108.9 171.556 108.336 171.556 107.784C171.556 107.264 171.428 106.856 171.172 106.56C170.924 106.256 170.52 106.104 169.96 106.104C169.416 106.104 168.992 106.276 168.688 106.62C168.392 106.956 168.232 107.408 168.208 107.976H167.152C167.184 107.08 167.456 106.388 167.968 105.9C168.48 105.412 169.14 105.168 169.948 105.168C170.772 105.168 171.424 105.396 171.904 105.852C172.392 106.308 172.636 106.936 172.636 107.736C172.636 108.4 172.436 109.048 172.036 109.68C171.644 110.304 171.196 110.856 170.692 111.336C170.188 111.808 169.544 112.36 168.76 112.992H172.888V113.904H167.116V113.124ZM173.886 112.068V111.24L178.098 105.408H179.406V111.12H180.606V112.068H179.406V114H178.326V112.068H173.886ZM178.374 106.548L175.146 111.12H178.374V106.548Z" fill="#444444"/>
<path d="M23 174C23 173.448 23.4477 173 24 173C24.5523 173 25 173.448 25 174V234C25 234.552 24.5523 235 24 235C23.4477 235 23 234.552 23 234V174Z" fill="#008516"/>
<circle cx="24" cy="168" r="6" fill="#008516"/>
<path opacity="0.1" d="M48 168C48 154.745 58.7452 144 72 144C85.2548 144 96 154.745 96 168C96 181.255 85.2548 192 72 192C58.7452 192 48 181.255 48 168Z" fill="#008516"/>
<path d="M79.3918 171.091C77.5151 171.091 75.9884 172.64 75.9884 174.545C75.9884 176.45 77.5151 178 79.3918 178C81.2688 178 82.7952 176.45 82.7952 174.545C82.7952 172.64 81.2684 171.091 79.3918 171.091ZM79.3918 176.272C78.4533 176.272 77.6901 175.498 77.6901 174.545C77.6901 173.593 78.4533 172.818 79.3918 172.818C80.3302 172.818 81.0935 173.593 81.0935 174.545C81.0935 175.498 80.3302 176.272 79.3918 176.272ZM67.7636 171.091C65.887 171.091 64.3603 172.64 64.3603 174.545C64.3603 176.45 65.887 178 67.7636 178C69.6403 178 71.167 176.45 71.167 174.545C71.167 172.64 69.6403 171.091 67.7636 171.091ZM67.7636 176.272C66.8252 176.272 66.062 175.498 66.062 174.545C66.062 173.593 66.8252 172.818 67.7636 172.818C68.7018 172.818 69.4653 173.593 69.4653 174.545C69.4653 175.498 68.7021 176.272 67.7636 176.272ZM81.6837 161.203C81.5391 160.911 81.2449 160.727 80.9233 160.727H76.4422V162.454H80.3986L82.7154 167.132L84.2362 166.356L81.6837 161.203Z" fill="#008516"/>
<path d="M70.4013 173.711H76.8393V175.438H70.4013V173.711ZM65.2111 173.711H62.2616C61.7916 173.711 61.4108 174.097 61.4108 174.574C61.4108 175.051 61.7917 175.438 62.2616 175.438H65.2112C65.6811 175.438 66.062 175.051 66.062 174.574C66.062 174.097 65.6811 173.711 65.2111 173.711ZM85.8213 168.431L84.1478 166.243C83.9867 166.032 83.7387 165.909 83.4759 165.909H77.2931V159.864C77.2931 159.387 76.9122 159 76.4423 159H62.2616C61.7916 159 61.4108 159.387 61.4108 159.864C61.4108 160.341 61.7917 160.727 62.2616 160.727H75.5914V166.773C75.5914 167.25 75.9723 167.636 76.4422 167.636H83.0592L84.2983 169.256V173.711H81.9443C81.4743 173.711 81.0935 174.097 81.0935 174.574C81.0935 175.051 81.4744 175.438 81.9443 175.438H85.1491C85.6191 175.438 85.9999 175.051 86 174.574V168.961C86 168.769 85.937 168.582 85.8213 168.431ZM65.1544 169.335H61.2405C60.7706 169.335 60.3897 169.722 60.3897 170.198C60.3897 170.676 60.7706 171.062 61.2405 171.062H65.1544C65.6243 171.062 66.0052 170.675 66.0052 170.198C66.0052 169.722 65.6243 169.335 65.1544 169.335ZM67.1113 165.938H59.8508C59.3809 165.938 59 166.325 59 166.802C59 167.279 59.3809 167.665 59.8508 167.665H67.1113C67.5813 167.665 67.9622 167.279 67.9622 166.802C67.9622 166.325 67.5813 165.938 67.1113 165.938Z" fill="#008516"/>
<path d="M68.501 162.541H61.2405C60.7706 162.541 60.3897 162.928 60.3897 163.405C60.3897 163.882 60.7706 164.268 61.2405 164.268H68.501C68.971 164.268 69.3519 163.882 69.3519 163.405C69.3519 162.928 68.971 162.541 68.501 162.541Z" fill="#008516"/>
<path d="M117.488 164.098C116.583 164.098 115.747 163.888 114.982 163.468C114.226 163.039 113.624 162.446 113.176 161.69C112.737 160.925 112.518 160.066 112.518 159.114C112.518 158.162 112.737 157.308 113.176 156.552C113.624 155.796 114.226 155.208 114.982 154.788C115.747 154.359 116.583 154.144 117.488 154.144C118.403 154.144 119.238 154.359 119.994 154.788C120.759 155.208 121.361 155.796 121.8 156.552C122.239 157.308 122.458 158.162 122.458 159.114C122.458 160.066 122.239 160.925 121.8 161.69C121.361 162.446 120.759 163.039 119.994 163.468C119.238 163.888 118.403 164.098 117.488 164.098ZM117.488 162.712C118.132 162.712 118.706 162.567 119.21 162.278C119.714 161.979 120.106 161.559 120.386 161.018C120.675 160.467 120.82 159.833 120.82 159.114C120.82 158.395 120.675 157.765 120.386 157.224C120.106 156.683 119.714 156.267 119.21 155.978C118.706 155.689 118.132 155.544 117.488 155.544C116.844 155.544 116.27 155.689 115.766 155.978C115.262 156.267 114.865 156.683 114.576 157.224C114.296 157.765 114.156 158.395 114.156 159.114C114.156 159.833 114.296 160.467 114.576 161.018C114.865 161.559 115.262 161.979 115.766 162.278C116.27 162.567 116.844 162.712 117.488 162.712ZM131.015 156.286V164H129.419V163.09C129.167 163.407 128.835 163.659 128.425 163.846C128.023 164.023 127.594 164.112 127.137 164.112C126.53 164.112 125.984 163.986 125.499 163.734C125.023 163.482 124.645 163.109 124.365 162.614C124.094 162.119 123.959 161.522 123.959 160.822V156.286H125.541V160.584C125.541 161.275 125.713 161.807 126.059 162.18C126.404 162.544 126.875 162.726 127.473 162.726C128.07 162.726 128.541 162.544 128.887 162.18C129.241 161.807 129.419 161.275 129.419 160.584V156.286H131.015ZM134.982 157.588V161.858C134.982 162.147 135.048 162.357 135.178 162.488C135.318 162.609 135.552 162.67 135.878 162.67H136.858V164H135.598C134.88 164 134.329 163.832 133.946 163.496C133.564 163.16 133.372 162.614 133.372 161.858V157.588H132.462V156.286H133.372V154.368H134.982V156.286H136.858V157.588H134.982ZM147.692 154.27V155.572H143.562V158.442H146.782V159.744H143.562V164H141.966V154.27H147.692ZM152.517 164.126C151.789 164.126 151.131 163.963 150.543 163.636C149.955 163.3 149.493 162.833 149.157 162.236C148.821 161.629 148.653 160.929 148.653 160.136C148.653 159.352 148.826 158.657 149.171 158.05C149.516 157.443 149.988 156.977 150.585 156.65C151.182 156.323 151.85 156.16 152.587 156.16C153.324 156.16 153.992 156.323 154.589 156.65C155.186 156.977 155.658 157.443 156.003 158.05C156.348 158.657 156.521 159.352 156.521 160.136C156.521 160.92 156.344 161.615 155.989 162.222C155.634 162.829 155.149 163.3 154.533 163.636C153.926 163.963 153.254 164.126 152.517 164.126ZM152.517 162.74C152.928 162.74 153.31 162.642 153.665 162.446C154.029 162.25 154.323 161.956 154.547 161.564C154.771 161.172 154.883 160.696 154.883 160.136C154.883 159.576 154.776 159.105 154.561 158.722C154.346 158.33 154.062 158.036 153.707 157.84C153.352 157.644 152.97 157.546 152.559 157.546C152.148 157.546 151.766 157.644 151.411 157.84C151.066 158.036 150.79 158.33 150.585 158.722C150.38 159.105 150.277 159.576 150.277 160.136C150.277 160.967 150.487 161.611 150.907 162.068C151.336 162.516 151.873 162.74 152.517 162.74ZM159.695 157.406C159.928 157.014 160.236 156.711 160.619 156.496C161.011 156.272 161.473 156.16 162.005 156.16V157.812H161.599C160.973 157.812 160.497 157.971 160.171 158.288C159.853 158.605 159.695 159.156 159.695 159.94V164H158.099V156.286H159.695V157.406ZM170.287 154.27C171.323 154.27 172.228 154.471 173.003 154.872C173.787 155.264 174.389 155.833 174.809 156.58C175.238 157.317 175.453 158.181 175.453 159.17C175.453 160.159 175.238 161.018 174.809 161.746C174.389 162.474 173.787 163.034 173.003 163.426C172.228 163.809 171.323 164 170.287 164H167.109V154.27H170.287ZM170.287 162.698C171.425 162.698 172.298 162.39 172.905 161.774C173.511 161.158 173.815 160.29 173.815 159.17C173.815 158.041 173.511 157.159 172.905 156.524C172.298 155.889 171.425 155.572 170.287 155.572H168.705V162.698H170.287ZM184.104 159.954C184.104 160.243 184.086 160.505 184.048 160.738H178.154C178.201 161.354 178.43 161.849 178.84 162.222C179.251 162.595 179.755 162.782 180.352 162.782C181.211 162.782 181.818 162.423 182.172 161.704H183.894C183.661 162.413 183.236 162.997 182.62 163.454C182.014 163.902 181.258 164.126 180.352 164.126C179.615 164.126 178.952 163.963 178.364 163.636C177.786 163.3 177.328 162.833 176.992 162.236C176.666 161.629 176.502 160.929 176.502 160.136C176.502 159.343 176.661 158.647 176.978 158.05C177.305 157.443 177.758 156.977 178.336 156.65C178.924 156.323 179.596 156.16 180.352 156.16C181.08 156.16 181.729 156.319 182.298 156.636C182.868 156.953 183.311 157.401 183.628 157.98C183.946 158.549 184.104 159.207 184.104 159.954ZM182.438 159.45C182.429 158.862 182.219 158.391 181.808 158.036C181.398 157.681 180.889 157.504 180.282 157.504C179.732 157.504 179.26 157.681 178.868 158.036C178.476 158.381 178.243 158.853 178.168 159.45H182.438ZM187.271 153.64V164H185.675V153.64H187.271ZM190.178 155.264C189.889 155.264 189.646 155.166 189.45 154.97C189.254 154.774 189.156 154.531 189.156 154.242C189.156 153.953 189.254 153.71 189.45 153.514C189.646 153.318 189.889 153.22 190.178 153.22C190.458 153.22 190.696 153.318 190.892 153.514C191.088 153.71 191.186 153.953 191.186 154.242C191.186 154.531 191.088 154.774 190.892 154.97C190.696 155.166 190.458 155.264 190.178 155.264ZM190.962 156.286V164H189.366V156.286H190.962ZM196.04 162.572L198.224 156.286H199.918L196.978 164H195.074L192.148 156.286H193.856L196.04 162.572ZM208.194 159.954C208.194 160.243 208.176 160.505 208.138 160.738H202.244C202.291 161.354 202.52 161.849 202.93 162.222C203.341 162.595 203.845 162.782 204.442 162.782C205.301 162.782 205.908 162.423 206.262 161.704H207.984C207.751 162.413 207.326 162.997 206.71 163.454C206.104 163.902 205.348 164.126 204.442 164.126C203.705 164.126 203.042 163.963 202.454 163.636C201.876 163.3 201.418 162.833 201.082 162.236C200.756 161.629 200.592 160.929 200.592 160.136C200.592 159.343 200.751 158.647 201.068 158.05C201.395 157.443 201.848 156.977 202.426 156.65C203.014 156.323 203.686 156.16 204.442 156.16C205.17 156.16 205.819 156.319 206.388 156.636C206.958 156.953 207.401 157.401 207.718 157.98C208.036 158.549 208.194 159.207 208.194 159.954ZM206.528 159.45C206.519 158.862 206.309 158.391 205.898 158.036C205.488 157.681 204.979 157.504 204.372 157.504C203.822 157.504 203.35 157.681 202.958 158.036C202.566 158.381 202.333 158.853 202.258 159.45H206.528ZM211.361 157.406C211.594 157.014 211.902 156.711 212.285 156.496C212.677 156.272 213.139 156.16 213.671 156.16V157.812H213.265C212.64 157.812 212.164 157.971 211.837 158.288C211.52 158.605 211.361 159.156 211.361 159.94V164H209.765V156.286H211.361V157.406ZM222.082 156.286L217.35 167.626H215.698L217.266 163.874L214.228 156.286H216.006L218.176 162.166L220.43 156.286H222.082Z" fill="#008516"/>
<path d="M112.612 185.124C113.628 184.308 114.424 183.64 115 183.12C115.576 182.592 116.06 182.044 116.452 181.476C116.852 180.9 117.052 180.336 117.052 179.784C117.052 179.264 116.924 178.856 116.668 178.56C116.42 178.256 116.016 178.104 115.456 178.104C114.912 178.104 114.488 178.276 114.184 178.62C113.888 178.956 113.728 179.408 113.704 179.976H112.648C112.68 179.08 112.952 178.388 113.464 177.9C113.976 177.412 114.636 177.168 115.444 177.168C116.268 177.168 116.92 177.396 117.4 177.852C117.888 178.308 118.132 178.936 118.132 179.736C118.132 180.4 117.932 181.048 117.532 181.68C117.14 182.304 116.692 182.856 116.188 183.336C115.684 183.808 115.04 184.36 114.256 184.992H118.384V185.904H112.612V185.124ZM119.514 185.124C120.53 184.308 121.326 183.64 121.902 183.12C122.478 182.592 122.962 182.044 123.354 181.476C123.754 180.9 123.954 180.336 123.954 179.784C123.954 179.264 123.826 178.856 123.57 178.56C123.322 178.256 122.918 178.104 122.358 178.104C121.814 178.104 121.39 178.276 121.086 178.62C120.79 178.956 120.63 179.408 120.606 179.976H119.55C119.582 179.08 119.854 178.388 120.366 177.9C120.878 177.412 121.538 177.168 122.346 177.168C123.17 177.168 123.822 177.396 124.302 177.852C124.79 178.308 125.034 178.936 125.034 179.736C125.034 180.4 124.834 181.048 124.434 181.68C124.042 182.304 123.594 182.856 123.09 183.336C122.586 183.808 121.942 184.36 121.158 184.992H125.286V185.904H119.514V185.124ZM138.412 177.696V186H137.32V179.808L134.56 186H133.792L131.02 179.796V186H129.928V177.696H131.104L134.176 184.56L137.248 177.696H138.412ZM139.856 182.688C139.856 182.016 139.992 181.428 140.264 180.924C140.536 180.412 140.908 180.016 141.38 179.736C141.86 179.456 142.392 179.316 142.976 179.316C143.552 179.316 144.052 179.44 144.476 179.688C144.9 179.936 145.216 180.248 145.424 180.624V179.424H146.528V186H145.424V184.776C145.208 185.16 144.884 185.48 144.452 185.736C144.028 185.984 143.532 186.108 142.964 186.108C142.38 186.108 141.852 185.964 141.38 185.676C140.908 185.388 140.536 184.984 140.264 184.464C139.992 183.944 139.856 183.352 139.856 182.688ZM145.424 182.7C145.424 182.204 145.324 181.772 145.124 181.404C144.924 181.036 144.652 180.756 144.308 180.564C143.972 180.364 143.6 180.264 143.192 180.264C142.784 180.264 142.412 180.36 142.076 180.552C141.74 180.744 141.472 181.024 141.272 181.392C141.072 181.76 140.972 182.192 140.972 182.688C140.972 183.192 141.072 183.632 141.272 184.008C141.472 184.376 141.74 184.66 142.076 184.86C142.412 185.052 142.784 185.148 143.192 185.148C143.6 185.148 143.972 185.052 144.308 184.86C144.652 184.66 144.924 184.376 145.124 184.008C145.324 183.632 145.424 183.196 145.424 182.7ZM149.465 180.492C149.657 180.116 149.929 179.824 150.281 179.616C150.641 179.408 151.077 179.304 151.589 179.304V180.432H151.301C150.077 180.432 149.465 181.096 149.465 182.424V186H148.373V179.424H149.465V180.492ZM155.737 185.124C156.753 184.308 157.549 183.64 158.125 183.12C158.701 182.592 159.185 182.044 159.577 181.476C159.977 180.9 160.177 180.336 160.177 179.784C160.177 179.264 160.049 178.856 159.793 178.56C159.545 178.256 159.141 178.104 158.581 178.104C158.037 178.104 157.613 178.276 157.309 178.62C157.013 178.956 156.853 179.408 156.829 179.976H155.773C155.805 179.08 156.077 178.388 156.589 177.9C157.101 177.412 157.761 177.168 158.569 177.168C159.393 177.168 160.045 177.396 160.525 177.852C161.013 178.308 161.257 178.936 161.257 179.736C161.257 180.4 161.057 181.048 160.657 181.68C160.265 182.304 159.817 182.856 159.313 183.336C158.809 183.808 158.165 184.36 157.381 184.992H161.509V185.904H155.737V185.124ZM162.771 181.572C162.771 180.196 162.995 179.124 163.443 178.356C163.891 177.58 164.675 177.192 165.795 177.192C166.907 177.192 167.687 177.58 168.135 178.356C168.583 179.124 168.807 180.196 168.807 181.572C168.807 182.972 168.583 184.06 168.135 184.836C167.687 185.612 166.907 186 165.795 186C164.675 186 163.891 185.612 163.443 184.836C162.995 184.06 162.771 182.972 162.771 181.572ZM167.727 181.572C167.727 180.876 167.679 180.288 167.583 179.808C167.495 179.32 167.307 178.928 167.019 178.632C166.739 178.336 166.331 178.188 165.795 178.188C165.251 178.188 164.835 178.336 164.547 178.632C164.267 178.928 164.079 179.32 163.983 179.808C163.895 180.288 163.851 180.876 163.851 181.572C163.851 182.292 163.895 182.896 163.983 183.384C164.079 183.872 164.267 184.264 164.547 184.56C164.835 184.856 165.251 185.004 165.795 185.004C166.331 185.004 166.739 184.856 167.019 184.56C167.307 184.264 167.495 183.872 167.583 183.384C167.679 182.896 167.727 182.292 167.727 181.572ZM170.175 185.124C171.191 184.308 171.987 183.64 172.562 183.12C173.139 182.592 173.623 182.044 174.015 181.476C174.415 180.9 174.615 180.336 174.615 179.784C174.615 179.264 174.487 178.856 174.231 178.56C173.983 178.256 173.579 178.104 173.019 178.104C172.475 178.104 172.051 178.276 171.747 178.62C171.451 178.956 171.291 179.408 171.267 179.976H170.211C170.243 179.08 170.515 178.388 171.027 177.9C171.539 177.412 172.199 177.168 173.007 177.168C173.831 177.168 174.483 177.396 174.963 177.852C175.451 178.308 175.695 178.936 175.695 179.736C175.695 180.4 175.495 181.048 175.095 181.68C174.703 182.304 174.255 182.856 173.751 183.336C173.247 183.808 172.603 184.36 171.819 184.992H175.947V185.904H170.175V185.124ZM176.945 184.068V183.24L181.157 177.408H182.465V183.12H183.665V184.068H182.465V186H181.385V184.068H176.945ZM181.433 178.548L178.205 183.12H181.433V178.548Z" fill="#444444"/>
<circle cx="24" cy="239" r="6" fill="#008516"/>
<path opacity="0.1" d="M48 239C48 225.745 58.7452 215 72 215C85.2548 215 96 225.745 96 239C96 252.255 85.2548 263 72 263C58.7452 263 48 252.255 48 239Z" fill="#008516"/>
<path d="M80.814 240.078L77.6514 242.448C77.0017 241.646 75.9698 241.258 74.9541 241.436L71.7358 242C71.2204 242.09 70.6915 242.062 70.1881 241.919L69.8281 241.816C67.9736 241.283 65.9757 241.704 64.493 242.941L64.3521 242.134C64.3126 241.908 64.0979 241.757 63.8725 241.796L60.343 242.415C60.1176 242.455 59.9668 242.67 60.0063 242.896L61.3609 250.656C61.4004 250.882 61.6151 251.033 61.8406 250.994L65.3699 250.375C65.5953 250.336 65.746 250.12 65.7066 249.895L65.6359 249.489L66.4672 248.813C66.7932 248.541 67.212 248.407 67.6351 248.438L73.3905 248.86C73.3997 248.861 73.4089 248.861 73.4182 248.861C73.4299 248.861 73.4416 248.861 73.4533 248.861C74.7196 248.858 75.9525 248.454 76.9751 247.706C76.9909 247.694 77.0059 247.681 77.0199 247.668L83.8755 240.942C84.0322 240.788 84.0423 240.538 83.8985 240.373C83.1137 239.465 81.7557 239.335 80.814 240.078ZM62.1062 250.104L60.8941 243.162L63.607 242.686L64.8192 249.629L62.1062 250.104ZM76.4619 247.046C75.5853 247.677 74.533 248.017 73.4536 248.016H73.4369L67.6954 247.603C67.0598 247.556 66.431 247.759 65.9414 248.167L65.4723 248.551L64.6619 243.909C65.9479 242.605 67.8422 242.108 69.6009 242.615L69.9609 242.718C70.5844 242.895 71.2397 242.929 71.8783 242.818L75.0969 242.254C76.0356 242.091 76.9603 242.607 77.3152 243.493L72.4751 244.341C72.2497 244.381 72.0989 244.596 72.1383 244.822C72.1778 245.048 72.3925 245.199 72.618 245.159L77.9086 244.232C78.134 244.193 78.2847 243.978 78.2453 243.752C78.2102 243.551 78.1536 243.355 78.0767 243.166L81.3142 240.74C81.3171 240.738 81.3199 240.736 81.3227 240.734C81.8003 240.353 82.4673 240.322 82.9784 240.656L76.4619 247.046Z" fill="#008516" stroke="#008516" stroke-width="0.5"/>
<path d="M71.5232 227V227.002C71.5202 227.002 71.5171 227.002 71.5141 227.002C71.5058 227.002 71.4975 227.002 71.4892 227.002C71.4808 227.003 71.4725 227.005 71.4643 227.007C71.456 227.009 71.4479 227.012 71.4399 227.015C71.4311 227.018 71.4224 227.02 71.4139 227.024L65.3438 229.756C65.2365 229.788 65.1624 229.888 65.1624 230.002V237.499C65.1621 237.598 65.2187 237.689 65.3072 237.731L71.4078 240.616C71.4348 240.628 71.4637 240.636 71.4932 240.638C71.4953 240.639 71.4973 240.639 71.4993 240.639C71.5014 240.639 71.5034 240.639 71.5054 240.639C71.5461 240.641 71.5865 240.633 71.6234 240.616L77.726 237.729C77.8148 237.688 77.8718 237.597 77.8719 237.497V229.995C77.8716 229.871 77.7842 229.765 77.6645 229.744H77.6635L71.6203 227.02C71.5896 227.007 71.5566 227 71.5232 227ZM71.5222 227.535L76.9324 229.973L74.6345 230.804C74.6195 230.792 74.6033 230.783 74.5863 230.775L69.4587 228.465L71.5222 227.535ZM68.838 228.744L68.8669 228.756L68.8924 228.768L68.9218 228.781L73.9528 231.049L71.51 231.931L66.0968 229.977L68.838 228.744ZM77.3707 230.358V237.332L71.7683 239.981V232.381L77.3707 230.358ZM65.6636 230.363L71.2619 232.386V239.981L65.6636 237.335L65.6636 230.363Z" fill="#008516" stroke="#008516" stroke-width="0.5"/>
<path d="M116.228 225.27C117.264 225.27 118.169 225.471 118.944 225.872C119.728 226.264 120.33 226.833 120.75 227.58C121.179 228.317 121.394 229.181 121.394 230.17C121.394 231.159 121.179 232.018 120.75 232.746C120.33 233.474 119.728 234.034 118.944 234.426C118.169 234.809 117.264 235 116.228 235H113.05V225.27H116.228ZM116.228 233.698C117.367 233.698 118.239 233.39 118.846 232.774C119.453 232.158 119.756 231.29 119.756 230.17C119.756 229.041 119.453 228.159 118.846 227.524C118.239 226.889 117.367 226.572 116.228 226.572H114.646V233.698H116.228ZM130.046 230.954C130.046 231.243 130.027 231.505 129.99 231.738H124.096C124.142 232.354 124.371 232.849 124.782 233.222C125.192 233.595 125.696 233.782 126.294 233.782C127.152 233.782 127.759 233.423 128.114 232.704H129.836C129.602 233.413 129.178 233.997 128.562 234.454C127.955 234.902 127.199 235.126 126.294 235.126C125.556 235.126 124.894 234.963 124.306 234.636C123.727 234.3 123.27 233.833 122.934 233.236C122.607 232.629 122.444 231.929 122.444 231.136C122.444 230.343 122.602 229.647 122.92 229.05C123.246 228.443 123.699 227.977 124.278 227.65C124.866 227.323 125.538 227.16 126.294 227.16C127.022 227.16 127.67 227.319 128.24 227.636C128.809 227.953 129.252 228.401 129.57 228.98C129.887 229.549 130.046 230.207 130.046 230.954ZM128.38 230.45C128.37 229.862 128.16 229.391 127.75 229.036C127.339 228.681 126.83 228.504 126.224 228.504C125.673 228.504 125.202 228.681 124.81 229.036C124.418 229.381 124.184 229.853 124.11 230.45H128.38ZM133.212 224.64V235H131.616V224.64H133.212ZM136.12 226.264C135.83 226.264 135.588 226.166 135.392 225.97C135.196 225.774 135.098 225.531 135.098 225.242C135.098 224.953 135.196 224.71 135.392 224.514C135.588 224.318 135.83 224.22 136.12 224.22C136.4 224.22 136.638 224.318 136.834 224.514C137.03 224.71 137.128 224.953 137.128 225.242C137.128 225.531 137.03 225.774 136.834 225.97C136.638 226.166 136.4 226.264 136.12 226.264ZM136.904 227.286V235H135.308V227.286H136.904ZM141.981 233.572L144.165 227.286H145.859L142.919 235H141.015L138.089 227.286H139.797L141.981 233.572ZM154.136 230.954C154.136 231.243 154.117 231.505 154.08 231.738H148.186C148.232 232.354 148.461 232.849 148.872 233.222C149.282 233.595 149.786 233.782 150.384 233.782C151.242 233.782 151.849 233.423 152.204 232.704H153.926C153.692 233.413 153.268 233.997 152.652 234.454C152.045 234.902 151.289 235.126 150.384 235.126C149.646 235.126 148.984 234.963 148.396 234.636C147.817 234.3 147.36 233.833 147.024 233.236C146.697 232.629 146.534 231.929 146.534 231.136C146.534 230.343 146.692 229.647 147.01 229.05C147.336 228.443 147.789 227.977 148.368 227.65C148.956 227.323 149.628 227.16 150.384 227.16C151.112 227.16 151.76 227.319 152.33 227.636C152.899 227.953 153.342 228.401 153.66 228.98C153.977 229.549 154.136 230.207 154.136 230.954ZM152.47 230.45C152.46 229.862 152.25 229.391 151.84 229.036C151.429 228.681 150.92 228.504 150.314 228.504C149.763 228.504 149.292 228.681 148.9 229.036C148.508 229.381 148.274 229.853 148.2 230.45H152.47ZM157.302 228.406C157.536 228.014 157.844 227.711 158.226 227.496C158.618 227.272 159.08 227.16 159.612 227.16V228.812H159.206C158.581 228.812 158.105 228.971 157.778 229.288C157.461 229.605 157.302 230.156 157.302 230.94V235H155.706V227.286H157.302V228.406ZM168.149 230.954C168.149 231.243 168.131 231.505 168.093 231.738H162.199C162.246 232.354 162.475 232.849 162.885 233.222C163.296 233.595 163.8 233.782 164.397 233.782C165.256 233.782 165.863 233.423 166.217 232.704H167.939C167.706 233.413 167.281 233.997 166.665 234.454C166.059 234.902 165.303 235.126 164.397 235.126C163.66 235.126 162.997 234.963 162.409 234.636C161.831 234.3 161.373 233.833 161.037 233.236C160.711 232.629 160.547 231.929 160.547 231.136C160.547 230.343 160.706 229.647 161.023 229.05C161.35 228.443 161.803 227.977 162.381 227.65C162.969 227.323 163.641 227.16 164.397 227.16C165.125 227.16 165.774 227.319 166.343 227.636C166.913 227.953 167.356 228.401 167.673 228.98C167.991 229.549 168.149 230.207 168.149 230.954ZM166.483 230.45C166.474 229.862 166.264 229.391 165.853 229.036C165.443 228.681 164.934 228.504 164.327 228.504C163.777 228.504 163.305 228.681 162.913 229.036C162.521 229.381 162.288 229.853 162.213 230.45H166.483ZM169.188 231.108C169.188 230.333 169.347 229.647 169.664 229.05C169.991 228.453 170.429 227.991 170.98 227.664C171.54 227.328 172.161 227.16 172.842 227.16C173.346 227.16 173.841 227.272 174.326 227.496C174.821 227.711 175.213 228 175.502 228.364V224.64H177.112V235H175.502V233.838C175.241 234.211 174.877 234.519 174.41 234.762C173.953 235.005 173.425 235.126 172.828 235.126C172.156 235.126 171.54 234.958 170.98 234.622C170.429 234.277 169.991 233.801 169.664 233.194C169.347 232.578 169.188 231.883 169.188 231.108ZM175.502 231.136C175.502 230.604 175.39 230.142 175.166 229.75C174.951 229.358 174.667 229.059 174.312 228.854C173.957 228.649 173.575 228.546 173.164 228.546C172.753 228.546 172.371 228.649 172.016 228.854C171.661 229.05 171.372 229.344 171.148 229.736C170.933 230.119 170.826 230.576 170.826 231.108C170.826 231.64 170.933 232.107 171.148 232.508C171.372 232.909 171.661 233.217 172.016 233.432C172.38 233.637 172.763 233.74 173.164 233.74C173.575 233.74 173.957 233.637 174.312 233.432C174.667 233.227 174.951 232.928 175.166 232.536C175.39 232.135 175.502 231.668 175.502 231.136Z" fill="#008516"/>
<path d="M112.612 256.124C113.628 255.308 114.424 254.64 115 254.12C115.576 253.592 116.06 253.044 116.452 252.476C116.852 251.9 117.052 251.336 117.052 250.784C117.052 250.264 116.924 249.856 116.668 249.56C116.42 249.256 116.016 249.104 115.456 249.104C114.912 249.104 114.488 249.276 114.184 249.62C113.888 249.956 113.728 250.408 113.704 250.976H112.648C112.68 250.08 112.952 249.388 113.464 248.9C113.976 248.412 114.636 248.168 115.444 248.168C116.268 248.168 116.92 248.396 117.4 248.852C117.888 249.308 118.132 249.936 118.132 250.736C118.132 251.4 117.932 252.048 117.532 252.68C117.14 253.304 116.692 253.856 116.188 254.336C115.684 254.808 115.04 255.36 114.256 255.992H118.384V256.904H112.612V256.124ZM119.622 250.508C119.678 249.772 119.962 249.196 120.474 248.78C120.986 248.364 121.65 248.156 122.466 248.156C123.01 248.156 123.478 248.256 123.87 248.456C124.27 248.648 124.57 248.912 124.77 249.248C124.978 249.584 125.082 249.964 125.082 250.388C125.082 250.884 124.938 251.312 124.65 251.672C124.37 252.032 124.002 252.264 123.546 252.368V252.428C124.066 252.556 124.478 252.808 124.782 253.184C125.086 253.56 125.238 254.052 125.238 254.66C125.238 255.116 125.134 255.528 124.926 255.896C124.718 256.256 124.406 256.54 123.99 256.748C123.574 256.956 123.074 257.06 122.49 257.06C121.642 257.06 120.946 256.84 120.402 256.4C119.858 255.952 119.554 255.32 119.49 254.504H120.546C120.602 254.984 120.798 255.376 121.134 255.68C121.47 255.984 121.918 256.136 122.478 256.136C123.038 256.136 123.462 255.992 123.75 255.704C124.046 255.408 124.194 255.028 124.194 254.564C124.194 253.964 123.994 253.532 123.594 253.268C123.194 253.004 122.59 252.872 121.782 252.872H121.506V251.96H121.794C122.53 251.952 123.086 251.832 123.462 251.6C123.838 251.36 124.026 250.992 124.026 250.496C124.026 250.072 123.886 249.732 123.606 249.476C123.334 249.22 122.942 249.092 122.43 249.092C121.934 249.092 121.534 249.22 121.23 249.476C120.926 249.732 120.746 250.076 120.69 250.508H119.622ZM138.576 248.696V257H137.484V250.808L134.724 257H133.956L131.184 250.796V257H130.092V248.696H131.268L134.34 255.56L137.412 248.696H138.576ZM140.02 253.688C140.02 253.016 140.156 252.428 140.428 251.924C140.7 251.412 141.072 251.016 141.544 250.736C142.024 250.456 142.556 250.316 143.14 250.316C143.716 250.316 144.216 250.44 144.64 250.688C145.064 250.936 145.38 251.248 145.588 251.624V250.424H146.692V257H145.588V255.776C145.372 256.16 145.048 256.48 144.616 256.736C144.192 256.984 143.696 257.108 143.128 257.108C142.544 257.108 142.016 256.964 141.544 256.676C141.072 256.388 140.7 255.984 140.428 255.464C140.156 254.944 140.02 254.352 140.02 253.688ZM145.588 253.7C145.588 253.204 145.488 252.772 145.288 252.404C145.088 252.036 144.816 251.756 144.472 251.564C144.136 251.364 143.764 251.264 143.356 251.264C142.948 251.264 142.576 251.36 142.24 251.552C141.904 251.744 141.636 252.024 141.436 252.392C141.236 252.76 141.136 253.192 141.136 253.688C141.136 254.192 141.236 254.632 141.436 255.008C141.636 255.376 141.904 255.66 142.24 255.86C142.576 256.052 142.948 256.148 143.356 256.148C143.764 256.148 144.136 256.052 144.472 255.86C144.816 255.66 145.088 255.376 145.288 255.008C145.488 254.632 145.588 254.196 145.588 253.7ZM149.629 251.492C149.821 251.116 150.093 250.824 150.445 250.616C150.805 250.408 151.241 250.304 151.753 250.304V251.432H151.465C150.241 251.432 149.629 252.096 149.629 253.424V257H148.537V250.424H149.629V251.492ZM155.901 256.124C156.917 255.308 157.713 254.64 158.289 254.12C158.865 253.592 159.349 253.044 159.741 252.476C160.141 251.9 160.341 251.336 160.341 250.784C160.341 250.264 160.213 249.856 159.957 249.56C159.709 249.256 159.305 249.104 158.745 249.104C158.201 249.104 157.777 249.276 157.473 249.62C157.177 249.956 157.017 250.408 156.993 250.976H155.937C155.969 250.08 156.241 249.388 156.753 248.9C157.265 248.412 157.925 248.168 158.733 248.168C159.557 248.168 160.209 248.396 160.689 248.852C161.177 249.308 161.421 249.936 161.421 250.736C161.421 251.4 161.221 252.048 160.821 252.68C160.429 253.304 159.981 253.856 159.477 254.336C158.973 254.808 158.329 255.36 157.545 255.992H161.673V256.904H155.901V256.124ZM162.935 252.572C162.935 251.196 163.159 250.124 163.607 249.356C164.055 248.58 164.839 248.192 165.959 248.192C167.071 248.192 167.851 248.58 168.299 249.356C168.747 250.124 168.971 251.196 168.971 252.572C168.971 253.972 168.747 255.06 168.299 255.836C167.851 256.612 167.071 257 165.959 257C164.839 257 164.055 256.612 163.607 255.836C163.159 255.06 162.935 253.972 162.935 252.572ZM167.891 252.572C167.891 251.876 167.843 251.288 167.747 250.808C167.659 250.32 167.471 249.928 167.183 249.632C166.903 249.336 166.495 249.188 165.959 249.188C165.415 249.188 164.999 249.336 164.711 249.632C164.431 249.928 164.243 250.32 164.147 250.808C164.059 251.288 164.015 251.876 164.015 252.572C164.015 253.292 164.059 253.896 164.147 254.384C164.243 254.872 164.431 255.264 164.711 255.56C164.999 255.856 165.415 256.004 165.959 256.004C166.495 256.004 166.903 255.856 167.183 255.56C167.471 255.264 167.659 254.872 167.747 254.384C167.843 253.896 167.891 253.292 167.891 252.572ZM170.339 256.124C171.355 255.308 172.151 254.64 172.727 254.12C173.303 253.592 173.787 253.044 174.179 252.476C174.579 251.9 174.779 251.336 174.779 250.784C174.779 250.264 174.651 249.856 174.395 249.56C174.147 249.256 173.743 249.104 173.183 249.104C172.639 249.104 172.215 249.276 171.911 249.62C171.615 249.956 171.455 250.408 171.431 250.976H170.375C170.407 250.08 170.679 249.388 171.191 248.9C171.703 248.412 172.363 248.168 173.171 248.168C173.995 248.168 174.647 248.396 175.127 248.852C175.615 249.308 175.859 249.936 175.859 250.736C175.859 251.4 175.659 252.048 175.259 252.68C174.867 253.304 174.419 253.856 173.915 254.336C173.411 254.808 172.767 255.36 171.983 255.992H176.111V256.904H170.339V256.124ZM177.109 255.068V254.24L181.321 248.408H182.629V254.12H183.829V255.068H182.629V257H181.549V255.068H177.109ZM181.597 249.548L178.369 254.12H181.597V249.548Z" fill="#444444"/>
<rect y="279" width="360" height="1" fill="#E2E3EE"/>
</svg>
